<?xml version="1.0" encoding="UTF-8" standalone="no"?>
<!-- Created with Inkscape (http://www.inkscape.org/) -->

<svg
   xmlns:dc="http://purl.org/dc/elements/1.1/"
   xmlns:cc="http://creativecommons.org/ns#"
   xmlns:rdf="http://www.w3.org/1999/02/22-rdf-syntax-ns#"
   xmlns:svg="http://www.w3.org/2000/svg"
   xmlns="http://www.w3.org/2000/svg"
   xmlns:sodipodi="http://sodipodi.sourceforge.net/DTD/sodipodi-0.dtd"
   xmlns:inkscape="http://www.inkscape.org/namespaces/inkscape"
   id="svg2"
   viewBox="0 0 459.97 96.701"
   version="1.1"
   inkscape:version="0.91 r13725"
   sodipodi:docname="signature.svg">
  <defs
     id="defs8" />
  <sodipodi:namedview
     pagecolor="#ffffff"
     bordercolor="#666666"
     borderopacity="1"
     objecttolerance="10"
     gridtolerance="10"
     guidetolerance="10"
     inkscape:pageopacity="0"
     inkscape:pageshadow="2"
     inkscape:window-width="758"
     inkscape:window-height="514"
     id="namedview6"
     showgrid="false"
     inkscape:zoom="1.4087875"
     inkscape:cx="229.985"
     inkscape:cy="48.350498"
     inkscape:window-x="0"
     inkscape:window-y="60"
     inkscape:window-maximized="0"
     inkscape:current-layer="svg2" />
  <metadata
     id="metadata7">
    <rdf:RDF>
      <cc:Work
         rdf:about="">
        <dc:format>image/svg+xml</dc:format>
        <dc:type
           rdf:resource="http://purl.org/dc/dcmitype/StillImage" />
        <dc:title />
      </cc:Work>
    </rdf:RDF>
  </metadata>
  <g
     id="layer1"
     transform="translate(-152.29208,-450.2662)"
     style="fill:#333333">
    <path
       id="path2996"
       fill="#FFF"
       d="m402.76,546.09c-0.51131-0.48638-0.92964-1.0617-0.92964-1.2784,0-0.53386,1.8506-2.183,3.0506-2.7184,0.53584-0.23908,1.2847-0.72511,1.6642-1.0801,0.98152-0.9181,2.4543-1.8585,2.9106-1.8585,0.21392,0,0.69644-0.25874,1.0723-0.57498,0.37583-0.31623,0.87538-0.57565,1.1101-0.57648,0.49374-0.002,1.2626-0.48301,2.5239-1.5797,2.095-1.8217,7.0358-4.6285,8.1477-4.6285,0.27407,0,0.79378-0.24862,1.1549-0.55249,0.36111-0.30386,1.1523-0.73718,1.7581-0.96293,0.60583-0.22575,1.3603-0.60751,1.6765-0.84835,0.31622-0.24084,0.88545-0.58351,1.2649-0.7615,0.37948-0.17798,1.0005-0.52967,1.3799-0.78153,0.37948-0.25186,0.8452-0.52525,1.035-0.60754,0.18974-0.0823,1.0694-0.4577,1.9549-0.83424,0.88546-0.37656,1.7652-0.81324,1.9549-0.97039,0.18975-0.15717,0.94528-0.55576,1.679-0.88577,0.73371-0.33001,1.6134-0.79526,1.9549-1.0339,0.34151-0.23863,0.89362-0.49969,1.2269-0.58013,0.57246-0.13818,3.131-1.2797,3.8788-1.7306,0.18974-0.11441,0.9142-0.44234,1.6099-0.72874,2.1701-0.89338,4.4536-2.1062,5.2292-2.7775,0.40943-0.35436,1.1856-0.76086,1.7249-0.90336,0.53926-0.14249,1.4462-0.55286,2.0154-0.91193,0.56922-0.35907,1.4143-0.72244,1.8779-0.80749,0.46363-0.0851,1.0846-0.41387,1.3799-0.73072,0.61787-0.66288,2.1912-1.4932,5.1316-2.7079,1.1356-0.46917,2.4493-1.2005,2.9193-1.6251,0.47001-0.4246,1.2493-0.8783,1.7317-1.0082,1.2006-0.32328,3.0943-1.2582,4.8912-2.4149,0.82628-0.53187,1.9404-1.0936,2.4759-1.2483,1.1508-0.33245,3.3668-1.4878,5.0868-2.652,0.67839-0.4592,1.5156-0.83294,1.8658-0.83294,0.35692,0,1.0086-0.29676,1.4875-0.67732,0.46875-0.37252,1.2333-0.79958,1.699-0.94903s1.002-0.39782,1.1917-0.55194c0.63084-0.5124,2.9259-1.7315,3.2596-1.7315,0.38079,0,4.418-2.0359,5.9399-2.9955,0.56923-0.35888,1.6206-0.87057,2.3364-1.1371,0.71581-0.2665,1.4327-0.64271,1.5932-0.83601,0.38755-0.46699,1.4618-1.0111,1.9962-1.0111,0.2359,0,1.319-0.46573,2.4068-1.035,1.0878-0.56923,2.1426-1.035,2.3439-1.035,0.20132,0,0.58839-0.25575,0.86018-0.56835,0.27181-0.31259,0.98227-0.73047,1.5788-0.9286,0.59655-0.19814,1.693-0.72822,2.4367-1.178,0.74362-0.44973,1.766-1.0262,2.272-1.2811,0.50598-0.25486,1.2304-0.75548,1.6099-1.1125,0.37949-0.35702,1.2074-0.85671,1.8399-1.1104,0.63246-0.25373,1.7192-0.7784,2.4149-1.166,0.69571-0.38755,1.6272-0.86638,2.0699-1.064,0.44274-0.19768,1.1331-0.50912,1.5341-0.6921,0.40102-0.18298,1.0737-0.39803,1.4949-0.47789,0.4212-0.0798,1.5042-0.33036,2.4066-0.55667,2.628-0.65905,4.7808-0.20334,5.4865,1.1614,0.54448,1.0529,0.43542,1.9582-0.34259,2.8443-0.37948,0.43221-0.69057,0.87567-0.69133,0.98546-0.003,0.28961-4.7238,4.9144-5.0175,4.9144-0.13611,0-0.52065,0.35818-0.85454,0.79595-0.33391,0.43777-0.83078,0.86319-1.1042,0.94538-0.27338,0.0822-0.96277,0.5361-1.532,1.0087-0.56921,0.47259-1.353,1.0236-1.7416,1.2244-0.38871,0.20081-0.84282,0.52908-1.0092,0.72949-0.16633,0.20042-0.64215,0.52561-1.0574,0.72266-0.41525,0.19704-1.3508,0.98288-2.079,1.7463-0.72819,0.76342-1.7455,1.5714-2.2607,1.7954-0.51519,0.22405-1.5059,0.98832-2.2017,1.6984-1.2066,1.2315-3.5726,2.7978-5.9823,3.9603-0.61317,0.2958-1.3033,0.81631-1.5336,1.1567-0.68426,1.0114-1.9832,2.1649-2.6014,2.3103-0.77032,0.1811-1.8027,0.97277-3.951,3.0297-0.98268,0.94089-2.0947,1.898-2.4713,2.127-0.37652,0.22897-0.86011,0.68423-1.0747,1.0117-0.21455,0.32746-0.84116,0.85971-1.3924,1.1828-0.55126,0.32307-1.0023,0.66461-1.0023,0.75899,0,0.0944-0.49161,0.45328-1.0924,0.79757-1.4919,0.85489-4.0174,2.8479-4.7838,3.7751-0.53974,0.65302-0.5844,0.8094-0.30964,1.0839,0.51743,0.51685,2.8306,0.69141,3.8342,0.28934,0.47118-0.18878,1.4259-0.52276,2.1216-0.74217,1.4662-0.4624,4.0745-1.6774,4.2659-1.9871,0.0721-0.11662,0.38362-0.21204,0.69234-0.21204,0.30869,0,1.0529-0.25008,1.6538-0.55574,1.5974-0.8125,2.7792-1.2838,3.2278-1.2871,0.48399-0.003,3.0855-0.80759,3.6579-1.1304,1.0478-0.59093,2.3767-1.0042,3.7515-1.1665,0.82221-0.0971,2.3746-0.49549,3.4498-0.88534s2.1929-0.71237,2.4838-0.71671c0.29089-0.004,0.85066-0.1743,1.2439-0.37767,0.5182-0.26798,1.0207-0.32923,1.8254-0.22248,0.78906,0.10467,1.3076,0.0453,1.792-0.20521,0.3749-0.19387,1.0523-0.35249,1.5054-0.35249,0.45306,0,1.1984-0.15656,1.6564-0.34789,0.69534-0.29053,1.2345-0.3095,3.27-0.11506,1.3405,0.12805,3.0066,0.20856,3.7023,0.17892,1.6418-0.0699,3.9969,0.82928,5.8689,2.2408,1.7104,1.2897,2.6272,1.5818,4.3808,1.3957,0.7506-0.0797,2.3997-0.2198,3.6646-0.31137,1.2649-0.0916,2.5069-0.28184,2.7599-0.4228,0.61151-0.34071,4.8064-0.63239,8.4909-0.5904,2.045,0.0233,3.0766-0.0536,3.3093-0.24676,0.22804-0.18925,1.0727-0.26019,2.5941-0.21785,1.5586,0.0433,2.4986-0.0386,3.0407-0.2651,0.4316-0.18033,1.3943-0.34,2.1393-0.35485,0.74503-0.0148,2.2343-0.13948,3.3095-0.27698,1.0752-0.13751,2.5241-0.21966,3.2198-0.18257,0.69572,0.0371,1.7307,0.0527,2.2999,0.0345,0.56922-0.0181,2.8979-0.0663,5.1748-0.10724,2.7794-0.0499,4.309-0.16966,4.6547-0.3644,0.99744-0.56191,5.5087-0.79485,12.595-0.65031,6.4247,0.13106,7.0501,0.18114,9.0846,0.7275,1.2017,0.3227,2.9414,0.72979,3.866,0.90462s1.8302,0.4416,2.0124,0.59282c0.39648,0.32906,0.4383,1.2753,0.0665,1.5051-0.14562,0.09-2.8131,0.14115-5.9277,0.11364-4.3638-0.0385-5.8991,0.0248-6.6924,0.27618-0.7057,0.22362-2.2952,0.33599-5.0543,0.35733-2.2136,0.0172-5.6807,0.15022-7.7046,0.29578-2.0239,0.14555-5.5945,0.32947-7.9346,0.40869-2.71,0.0918-4.5053,0.25382-4.9448,0.44639-0.46879,0.20541-1.5378,0.28388-3.3348,0.24477-1.4547-0.0317-4.4043,0.0815-6.5547,0.25139-2.1504,0.16992-5.0483,0.33614-6.4397,0.36937-3.658,0.0874-4.7599,0.19688-5.3842,0.53512-0.45305,0.24547-0.77803,0.24675-1.7774,0.007-0.95383-0.22882-1.6418-0.23633-3.1254-0.0341-1.1124,0.15162-2.9768,0.19983-4.4897,0.11608-2.9043-0.16075-3.1513-0.0107-1.9214,1.1676,0.82595,0.79133,1.1226,2.5446,0.66681,3.9406-0.39733,1.2169-1.3909,1.7163-3.4155,1.7168-1.9839,0.00046-3.8921-0.66441-5.6152-1.9565-1.7375-1.3029-3.2318-1.8167-4.803-1.6515-1.9956,0.20982-2.4988,0.32782-4.4788,1.0504-2.2974,0.83847-3.3834,0.74483-4.8521-0.41836-0.76265-0.60402-0.93709-0.88593-0.93709-1.5142,0-0.42464,0.12937-0.8554,0.28748-0.95726,0.46137-0.2972,2.7241-0.7311,3.8962-0.74714,0.59337-0.008,1.1391-0.11228,1.2128-0.23147s0.6231-0.28748,1.221-0.374c0.59791-0.0865,1.2272-0.26934,1.3985-0.40628,0.37748-0.30183,2.4472-0.64787,4.1734-0.69774,1.3524-0.0391,2.8251-0.52444,2.703-0.89085-0.0408-0.12248-0.83449-0.47054-1.7637-0.77347-1.8239-0.59462-5.389-0.77133-6.5622-0.32527-0.82766,0.31467-5.0282,0.92294-6.4345,0.93175-0.65926,0.004-1.3612,0.15422-1.6134,0.34499-0.24556,0.18571-0.79652,0.33767-1.2244,0.33767s-1.5487,0.25874-2.4908,0.57497c-0.94207,0.31624-1.9144,0.57498-2.1609,0.57498-0.24641,0-0.86108,0.21527-1.3659,0.47839-0.5048,0.26312-1.1031,0.42008-1.3295,0.3488-0.45168-0.14221-2.5229,0.74046-3.4515,1.4709-0.32769,0.25777-0.93429,0.46181-1.3729,0.46181-0.43225,0-1.1686,0.19439-1.6364,0.43197-0.46777,0.23759-1.3162,0.64108-1.8855,0.89664-0.56922,0.25556-1.5664,0.73389-2.216,1.063-0.64961,0.32906-1.4286,0.59829-1.7312,0.59829s-0.76513,0.15056-1.0279,0.33458c-0.71351,0.49978-2.398,1.0382-3.2599,1.042-0.41819,0.002-1.387,0.31425-2.1529,0.69423-1.2889,0.63951-1.4897,0.67525-2.6991,0.48047-1.4741-0.23739-3.4612-1.1115-3.7086-1.6313-0.73026-1.5346-1.1436-2.609-1.1436-2.9725,0-0.23669,0.25749-0.88077,0.57221-1.4313,0.31469-0.55051,0.57343-1.236,0.57497-1.5233,0.002-0.3338,0.21239-0.61792,0.58339-0.78696,0.31934-0.1455,0.79778-0.61594,1.0632-1.0454,0.31815-0.51475,0.89168-0.96179,1.6828-1.3117,0.66014-0.29194,1.5754-0.90597,2.034-1.3645,0.45855-0.45856,1.057-0.83374,1.3299-0.83374,0.50018,0,1.997-1.5018,2.7978-2.8071,0.2221-0.36199,0.58433-0.72175,0.80496-0.79946,0.68337-0.24066,1.8961-1.2309,1.8961-1.5482,0-0.16586,1.097-0.85767,2.4378-1.5374,1.4534-0.73675,2.6206-1.4926,2.8905-1.8716,0.25903-0.36378,0.66871-0.63582,0.95753-0.63582,0.29651,0,0.59844-0.20742,0.73181-0.50274,0.12486-0.27651,0.58925-0.69673,1.032-0.93384,0.44273-0.2371,1.012-0.67149,1.2649-0.9653,0.25298-0.29382,0.71871-0.6109,1.035-0.70461,0.31624-0.0937,1.376-0.98333,2.355-1.9769,0.97898-0.99359,2.2209-2.0899,2.7599-2.4362,0.53893-0.34631,1.3022-0.90225,1.6962-1.2354,0.39398-0.33318,1.1348-0.6727,1.6462-0.75448,0.70212-0.11227,1.2027-0.42389,2.0436-1.2722,0.61252-0.61794,1.4242-1.2854,1.8036-1.4833,0.6887-0.35913,5.5735-4.4742,8.3846-7.0634,1.6737-1.5416,1.6712-1.9542-0.0101-1.6861-0.66361,0.10583-1.2163,0.37725-1.5972,0.78438-0.32033,0.3424-0.94131,0.69941-1.3799,0.79337-0.43864,0.094-0.90103,0.2497-1.0275,0.34611-0.1265,0.0964-0.47672,0.25107-0.77826,0.34369-0.30156,0.0926-1.1469,0.51928-1.8786,0.94811-0.73169,0.42883-1.4615,0.77968-1.6218,0.77968-0.16031,0-0.5321,0.22607-0.82619,0.50235-0.71605,0.6727-1.7871,1.2941-4.6697,2.7095-1.3282,0.65214-2.6736,1.3337-2.9899,1.5147-0.55545,0.31777-2.0876,1.1119-4.4848,2.3246-0.63247,0.31995-1.3111,0.72521-1.508,0.90059-0.49565,0.44137-8.5382,4.4661-8.9264,4.467-0.17318,0.00046-0.91119,0.36298-1.64,0.80571s-1.4696,0.80496-1.6463,0.80496c-0.17667,0-0.56558,0.17116-0.86427,0.38037s-1.4616,0.82747-2.5844,1.3739c-1.1227,0.54644-2.8522,1.5137-3.8434,2.1495-0.99111,0.63578-1.9796,1.156-2.1967,1.156-0.48208,0-1.2436,0.37915-1.8593,0.92581-0.25298,0.22458-1.1327,0.59382-1.9549,0.82053-1.7208,0.47449-6.2097,2.5138-6.2097,2.8211,0,0.11359-0.33636,0.33701-0.74746,0.49646-1.5226,0.59057-3.3067,1.4912-4.3123,2.1769-1.2676,0.86433-3.3857,1.9588-3.7908,1.9588-0.16415,0-0.93111,0.46572-1.7043,1.0349-0.77321,0.56923-1.5462,1.035-1.7178,1.035-0.38189,0-2.7672,1.2569-3.7116,1.9558-0.37947,0.28083-1.0312,0.62469-1.4482,0.76414-0.41706,0.13946-1.0261,0.46423-1.3535,0.72173-0.32737,0.2575-0.79779,0.46818-1.0454,0.46818s-0.71334,0.20699-1.035,0.45998c-0.32165,0.25298-0.70803,0.45998-0.85864,0.45998-0.15065,0-0.51548,0.25715-0.81074,0.57145-0.29528,0.3143-0.90841,0.6384-1.3625,0.72024-1.0625,0.19147-1.6561,0.48957-2.1104,1.06-0.20057,0.25185-1.2355,0.7414-2.2999,1.0879-2.14,0.69669-3.3434,1.2843-5.3415,2.6081-0.73507,0.48701-1.7136,0.94667-2.1746,1.0215-0.46096,0.0748-1.7946,0.68824-2.9636,1.3632s-2.2802,1.2272-2.4691,1.2272c-0.18899,0-0.41137,0.10964-0.49421,0.24367-0.0828,0.13401-0.83927,0.58873-1.681,1.0105-3.9211,1.9647-5.2109,2.6791-5.7635,3.1926-0.34288,0.31859-1.0233,0.61863-1.6,0.70552-0.99265,0.14959-3.6003,1.7777-4.2311,2.6417-0.51219,0.70158-4.2652,2.785-5.0175,2.7854-0.19932,0.0001-0.61329,0.26899-0.91996,0.59754-0.30667,0.32854-0.9198,0.78421-1.3625,1.0126-0.44273,0.22836-1.0559,0.68403-1.3625,1.0126-0.30666,0.32855-0.73047,0.59735-0.94181,0.59735-0.21133,0-0.57157,0.20699-0.80052,0.45998-0.66069,0.73006-1.5767,0.58255-2.6352-0.42437zm135.57-25.212c0-0.79363-1.6069-1.5154-3.2198-1.4464-1.7265,0.0739-1.7847,0.41217-0.22999,1.335,0.92915,0.55154,1.3707,0.67121,2.2999,0.62328,0.97032-0.05,1.1499-0.13001,1.1499-0.51196zm-161.74,23.237c-2.5056-1.183-4.425-3.4337-4.425-5.1889,0-0.72134,0.86495-2.6229,2.0253-4.4526,0.75174-1.1854,1.8925-2.2181,2.45-2.2181,0.37546,0,1.2176,0.85382,2.0204,2.0482,0.78931,1.1745,0.38184,3.0044-0.77579,3.4839-1.1929,0.4941-0.82943,1.1132,2.2864,3.895,0.70292,0.62757,0.6128,1.7506-0.18661,2.3252-0.99011,0.71165-2.0442,0.745-3.3947,0.10739zm-99.509-3.0215c-0.45367-0.45367-0.45538-0.86596-0.007-1.8097,0.67291-1.418,1.7648-2.223,3.5974-2.6519,1.2756-0.29857,1.7461-0.5178,1.942-0.90504,0.52942-1.0466,1.4811-1.803,2.4281-1.93,0.55964-0.0751,1.1771-0.36184,1.5516-0.72066,0.34214-0.32778,1.2313-0.8101,1.9759-1.0718,0.92822-0.32624,1.7771-0.8677,2.7002-1.7224,0.89502-0.82864,1.5424-1.2465,1.931-1.2465,0.34782,0,0.83564-0.26876,1.2045-0.6636,0.34094-0.36498,1.4072-0.99134,2.3694-1.3919,0.96224-0.40059,2.3998-1.2502,3.1946-1.8881,1.4835-1.1906,2.2119-1.5761,2.9781-1.5761,0.48519,0,4.5918-2.2674,4.5918-2.5353,0-0.0928,0.33635-0.30288,0.74746-0.4668s1.0222-0.48697,1.3579-0.71787c0.33576-0.2309,0.82503-0.41982,1.0873-0.41982,0.26224,0,1.0742-0.32667,1.8044-0.72592,2.3215-1.2694,2.4712-1.3411,2.8013-1.3426,0.17804-0.00068,1.4717-0.55927,2.8749-1.2411,1.4031-0.68181,3.4826-1.5724,4.621-1.979,1.1384-0.40663,2.9496-1.2304,4.0248-1.8307,1.0752-0.60027,2.3416-1.218,2.8142-1.3726,0.47259-0.15468,0.9113-0.36545,0.97492-0.46837,0.0636-0.10293,0.48941-0.25726,0.94623-0.34296s1.4153-0.61484,2.13-1.1759c0.71465-0.56103,1.4649-1.0201,1.6673-1.0202,0.20238-0.00008,0.82217-0.32917,1.3773-0.73131,0.55513-0.40215,1.6265-0.92325,2.3808-1.158,3.6021-1.1211,10.248-4.5082,10.248-5.2229,0-0.10868,0.40659-0.36028,0.90353-0.55912,0.49694-0.19883,1.5086-0.96041,2.2482-1.6924,0.73955-0.73198,1.8899-1.7448,2.5563-2.2508,0.66641-0.50597,1.9215-1.4892,2.789-2.1849,0.86758-0.69572,1.9057-1.4456,2.3069-1.6665,0.47613-0.26207,0.70109-0.54168,0.64762-0.80496-0.0704-0.34659-0.32895-0.39764-1.8362-0.36256-1.071,0.0249-2.0266,0.18167-2.4536,0.40248-0.38464,0.19891-1.0708,0.36165-1.5249,0.36165-0.45404,0-1.2313,0.20699-1.7272,0.45997-0.4959,0.25299-1.093,0.45998-1.3268,0.45998-0.23385,0-0.62608,0.15195-0.87162,0.33767s-0.73774,0.34096-1.0938,0.34498c-0.35602,0.004-1.1322,0.20248-1.7249,0.44101-1.0691,0.43026-2.8831,0.93788-4.8724,1.3634-1.3514,0.28911-6.495,2.0168-7.8196,2.6266-0.9988,0.45979-3.5145,1.4713-5.3908,2.1675-0.49834,0.18491-1.4815,0.59704-2.1849,0.91583-0.70335,0.3188-1.5376,0.68897-1.8538,0.8226-0.31623,0.13363-1.0407,0.49374-1.6099,0.80024-0.56922,0.30651-1.5007,0.76092-2.0699,1.0098-0.56922,0.24889-1.2937,0.60171-1.6099,0.78405-0.31623,0.18235-0.83371,0.44694-1.15,0.58799-3.351,1.4946-4.3766,2.4362-3.8685,3.5513,0.29238,0.64169-0.0544,1.2668-0.70193,1.2653-1.0481-0.002-3.4626-2.2504-3.473-3.2335-0.008-0.75483,3.352-4.3553,4.0643-4.3553,0.26009,0,0.60274-0.15645,0.76143-0.34767,0.1587-0.19121,0.71472-0.53662,1.2356-0.76758,0.5209-0.23095,1.0847-0.58669,1.253-0.79052,0.16824-0.20383,0.63397-0.46906,1.035-0.58941,3.3526-1.0062,4.3028-1.3614,5.1403-1.9216,0.52877-0.35366,1.0262-0.64302,1.1054-0.64302s0.77931-0.31523,1.5558-0.70052c0.77654-0.38529,1.8833-0.76343,2.4595-0.84033,0.57617-0.0769,1.5734-0.43438,2.2161-0.79441s1.4725-0.6546,1.844-0.6546c0.37151,0,1.0671-0.26612,1.5458-0.59137,0.47865-0.32525,1.2435-0.65194,1.6997-0.72596,0.45616-0.074,1.4933-0.48063,2.3047-0.90356,0.81141-0.42293,1.7006-0.769,1.976-0.76904,0.27542-0.00004,1.5141-0.36227,2.7525-0.80496,1.2385-0.44269,2.5441-0.8049,2.9013-0.8049,0.35726,0,0.8964-0.19103,1.1981-0.42452,0.31939-0.24719,1.9895-0.7362,3.9983-1.1707,1.8974-0.4104,3.9156-0.96746,4.4848-1.2379,1.4808-0.70362,5.9566-0.6611,7.8223,0.0743,0.69185,0.27271,1.3349,0.61689,1.429,0.76486s0.17272,0.82566,0.17466,1.506c0.004,1.4978-1.0266,3.5022-2.1527,4.186-0.80564,0.48916-1.8962,1.4076-3.6093,3.0395-0.63671,0.60655-1.6957,1.4501-2.3533,1.8746-0.65762,0.42446-1.5579,1.1557-2.0006,1.6251-0.44273,0.46933-1.2448,1.0452-1.7824,1.2796-1.1337,0.49443-1.3203,1.1326-0.33118,1.1326,0.35546,0,1.3816-0.36223,2.2802-0.80496,0.89867-0.44273,1.9547-0.80496,2.3467-0.80496,0.39201,0,0.89245-0.10364,1.1121-0.23031,1.152-0.66435,3.632-1.6096,4.223-1.6096,0.37175,0,1.0352-0.15014,1.4744-0.33364,0.43918-0.1835,1.7554-0.49672,2.925-0.69605s2.6439-0.46205,3.2764-0.58382c1.7158-0.33034,6.5917-0.44868,7.1296-0.17304,0.92682,0.47484,1.4781,1.3946,1.4845,2.4765,0.006,1.021-0.0191,1.0551-1.8605,2.5299-1.0266,0.82221-2.4431,2.0397-3.1476,2.7056-0.83934,0.79324-1.6026,1.2918-2.2136,1.4461-1.4643,0.3696-2.7274,0.95989-3.2789,1.5323-0.27857,0.28913-0.62216,0.52569-0.76352,0.52569-0.43908,0-2.1156,1.2666-3.6029,2.7219-1.0096,0.98789-1.7113,1.47-2.4149,1.6593-1.046,0.28144-4.0966,1.9857-4.0966,2.2886,0,0.32199-3.0866,2.7031-3.9899,3.0779-0.48678,0.20198-1.0874,0.62452-1.3348,0.93898-0.24734,0.31445-0.85938,0.69447-1.3601,0.84448-1.0598,0.31754-1.4302,0.68034-1.2292,1.2041,0.10288,0.26811,0.43416,0.37412,1.169,0.37412,0.56401,0,1.2354,0.11234,1.4919,0.24963,0.33883,0.18134,0.97963,0.17235,2.3423-0.0329,1.0317-0.15538,2.2381-0.30826,2.6808-0.33973,0.44273-0.0315,1.2342-0.17304,1.7588-0.31461,0.68307-0.18433,1.4339-0.18994,2.6449-0.0197,2.2052,0.30988,2.4452,0.39518,2.6147,0.92911,0.35259,1.1109-0.697,2.0423-2.9763,2.6412-2.8108,0.7385-3.7486,1.0167-4.9426,1.4662-1.0496,0.39507-1.6665,0.45699-3.9213,0.39353-3.1661-0.0891-4.8891-0.55803-5.4624-1.4867-0.20751-0.33611-0.78473-0.99814-1.2827-1.4712-0.87267-0.82898-0.89958-0.89894-0.74423-1.9349,0.256-1.7072,2.2789-4.2156,4.8427-6.0051,1.135-0.79222,2.4027-1.5968,2.817-1.7879,0.41431-0.19115,1.4299-0.81078,2.2569-1.377,0.82699-0.56618,1.7204-1.0294,1.9854-1.0294,0.28821,0,1.0142-0.55435,1.8071-1.3799,0.72895-0.75897,1.5147-1.3812,1.7461-1.3828,0.59432-0.004,3.0277-1.2737,3.6289-1.8933,0.27681-0.28528,0.80666-0.6969,1.1774-0.9147,0.37079-0.2178,1.1771-0.76115,1.7917-1.2074,0.6786-0.49271,1.3841-0.81143,1.7961-0.81143,0.82058,0,2.7211-1.4948,2.7211-2.1402,0-0.38723-0.12727-0.4176-1.2074-0.28808-2.2162,0.2657-4.1886,0.63986-5.0644,0.96069-0.47691,0.1747-1.1291,0.31763-1.4494,0.31763-0.32024,0-0.96499,0.19358-1.4328,0.43017-1.4,0.70809-4.5554,1.6486-8.6702,2.5842-1.2649,0.28762-2.6606,0.71026-3.1014,0.9392-0.44085,0.22894-0.95098,0.41626-1.1336,0.41626-0.18263,0-0.64989,0.0963-1.0384,0.21396-0.38846,0.11768-1.3273,0.39016-2.0862,0.6055-0.75896,0.21534-1.7422,0.52636-2.1849,0.69113-0.44273,0.16478-1.3742,0.42214-2.0699,0.5719-0.69571,0.14977-1.9459,0.57044-2.7782,0.93482s-1.7172,0.66251-1.9664,0.66251c-0.24922,0-0.55145,0.093-0.67162,0.20673-0.12017,0.1137-1.0982,0.59951-2.1734,1.0796-1.0752,0.48006-2.3171,1.1497-2.7599,1.4881-0.44273,0.33841-1.3403,0.88525-1.9946,1.2152-0.65431,0.32993-1.5533,0.84664-1.9977,1.1482-0.44444,0.30161-1.2198,0.6142-1.7229,0.69466-0.50317,0.0805-1.4439,0.4311-2.0905,0.77921-0.64658,0.3481-2.0785,1.1219-3.1821,1.7195-1.1036,0.59765-2.3328,1.2589-2.7316,1.4694s-0.83643,0.6271-0.97252,0.92577c-0.13608,0.29868-0.41026,0.54304-0.60927,0.54304-0.19902,0-0.74458,0.19843-1.2124,0.44093-0.46779,0.24252-1.1093,0.55357-1.4255,0.69125-0.31623,0.13768-1.2477,0.76664-2.0699,1.3977-0.82221,0.63106-1.7537,1.2624-2.0699,1.4029-0.31623,0.14053-1.2601,0.60683-2.0974,1.0362-0.83734,0.4294-1.6832,0.78072-1.8798,0.78072-0.19652,0-0.64987,0.24458-1.0074,0.5435-0.35756,0.29893-0.8976,0.62103-1.2001,0.71579-0.30249,0.0948-1.027,0.46928-1.6099,0.83228-0.58297,0.36301-1.305,0.76744-1.6045,0.89875-0.29949,0.1313-0.80505,0.44364-1.1235,0.69411-0.3184,0.25045-0.73825,0.45538-0.93298,0.45538-0.19474,0-1.1898,0.43067-2.2114,0.95703-1.0215,0.52637-2.5688,1.1403-3.4384,1.3644-0.97332,0.25077-1.818,0.63435-2.1975,0.99788-0.33902,0.32479-0.73215,0.59053-0.87364,0.59053s-0.54981,0.24119-0.90738,0.53597c-0.35756,0.29479-1.1676,0.66984-1.8,0.83346-2.7239,0.70465-5.6867,1.9446-6.9512,2.909-0.68718,0.52414-3.1797,1.4713-3.8719,1.4713-0.16424,0-0.46123-0.16264-0.66001-0.36141zm-115.47-5.8617c-2.835-0.5045-3.8078-0.79691-5.0259-1.5108-0.7414-0.43452-1.6856-0.93111-2.0983-1.1035-1.1284-0.47145-2.1904-2.7142-2.1904-4.6255,0-0.99057,0.10602-1.518,0.34498-1.7164,0.18974-0.15747,0.34499-0.55825,0.34499-0.89062,0.00001-0.475,0.30759-0.83091,1.4374-1.6633,1.8646-1.3737,1.968-1.4285,4.5423-2.4087,1.2017-0.45756,2.2884-0.91179,2.4149-1.0094,0.1265-0.0976,1.0062-0.41214,1.9549-0.69898,0.9487-0.28683,2.1898-0.7661,2.758-1.065,0.56821-0.29895,1.1439-0.54354,1.2792-0.54354,0.13537,0,0.70541-0.2226,1.2668-0.49466,0.56136-0.27207,1.7969-0.68813,2.7456-0.92457,0.94871-0.23644,2.2424-0.68207,2.8749-0.99028,0.63247-0.30823,1.6721-0.70826,2.3102-0.88896,1.1568-0.32757,6.1663-2.2309,8.6663-3.2927,2.6495-1.1253,6.1736-2.2351,10.068-3.1704,0.69572-0.16711,1.7824-0.51382,2.4149-0.77046,0.63247-0.25665,1.7103-0.68883,2.3952-0.96042,0.68487-0.27158,1.4582-0.643,1.7186-0.82536,0.26036-0.18236,0.85-0.33156,1.3103-0.33156,0.49592,0,1.6368-0.37485,2.8001-0.91996,1.0797-0.50598,2.1331-0.91996,2.3409-0.91996,0.20777,0,0.7908-0.21072,1.2956-0.46826,0.50483-0.25755,2.1208-0.78061,3.5911-1.1624,2.6398-0.6854,3.8208-1.1418,4.0924-1.5814,0.0766-0.12396,0.57477-0.34131,1.107-0.48301,0.53226-0.1417,1.123-0.39077,1.3127-0.55349,0.65313-0.56011,1.8185-1.0413,2.522-1.0413,0.41874,0,1.1937-0.32302,1.9088-0.79566,0.66215-0.43762,1.6372-0.86378,2.1667-0.94701,0.56904-0.0894,1.1733-0.37541,1.4775-0.69926,0.28311-0.30136,0.65401-0.54793,0.82422-0.54793,0.34087,0,2.0272-1.011,2.2278-1.3356,0.18144-0.29359-1.762-2.8877-2.6618-3.553-0.41837-0.30933-1.5861-0.96395-2.5949-1.4547-1.0088-0.49078-2.2626-1.2192-2.786-1.6188-0.52347-0.39957-1.1705-0.79593-1.4379-0.88079-0.26738-0.0849-0.91225-0.5103-1.433-0.94541-0.5208-0.43511-1.0802-0.79111-1.2432-0.79111-0.16296,0-0.86224-0.66296-1.554-1.4732-1.0962-1.2841-1.2768-1.6365-1.4071-2.7444-0.0822-0.69914-0.0506-1.531,0.0702-1.8487,0.33793-0.88884,4.2916-4.5132,4.9232-4.5132,0.14802,0,0.67166-0.21575,1.1636-0.47943,1.0099-0.54127,3.6946-1.5233,5.0784-1.8576,0.50598-0.12225,1.5409-0.38031,2.2999-0.57348,0.75897-0.19316,1.9492-0.43602,2.6449-0.53968,0.69572-0.10365,1.5754-0.29256,1.9549-0.41978,0.37949-0.12723,1.3109-0.28911,2.0699-0.35972,0.75897-0.0706,1.9492-0.28718,2.6449-0.48125,0.69572-0.19406,1.8859-0.45576,2.6449-0.58154,0.75896-0.12579,2.0526-0.38382,2.8749-0.5734,3.9252-0.90506,6.8291-1.3632,12.074-1.9047,0.88546-0.0914,1.7566-0.26015,1.9359-0.37494,0.17928-0.11479,1.0072-0.28506,1.8399-0.37838,1.944-0.21786,5.6511-0.82583,7.59-1.2448,1.3622-0.29432,3.0977-0.55622,8.5283-1.2869,0.9487-0.12765,2.0872-0.37308,2.5299-0.54542,0.44273-0.17233,2.356-0.43827,4.2516-0.59096,3.7013-0.29816,7.3045-0.78309,7.7182-1.0387,0.27829-0.17199,2.0584-0.42722,5.6244-0.80642,1.265-0.13451,2.7139-0.43655,3.2198-0.67121,0.56143-0.26037,1.7607-0.48772,3.0773-0.58335,1.1865-0.0862,3.1012-0.41206,4.2548-0.72414,1.1536-0.31209,2.9208-0.66851,3.927-0.79202,1.0062-0.12352,2.1347-0.37683,2.5077-0.56291,0.373-0.18607,1.1348-0.33832,1.6929-0.33832s1.2121-0.10565,1.4534-0.23477c0.61494-0.3291,2.5071-0.68554,4.9358-0.92978,2.984-0.30009,4.7317-0.58675,5.5197-0.90535,0.71522-0.28918,2.2156-0.54907,5.1748-0.89639,0.94871-0.11135,2.5011-0.46242,3.4498-0.78018,1.5144-0.50723,3.2549-0.76872,6.5547-0.9848,1.7313-0.11336,4.17-0.53513,5.287-0.9144,1.6945-0.57528,7.2158-0.59431,8.6786-0.0299,0.92324,0.35624,1.1215,0.54604,1.3212,1.2649,0.1292,0.4652,0.23549,1.0321,0.23619,1.2597,0.002,0.83902-0.72933,1.785-1.9011,2.457-1.4936,0.85661-2.4312,0.89194-3.1574,0.11897-0.64769-0.68944-1.3631-0.72042-4.7148-0.20417-1.2649,0.19483-2.7656,0.3754-3.3348,0.40128-0.56922,0.0258-1.1578,0.12355-1.308,0.21708-0.15017,0.0935-1.1071,0.27464-2.1265,0.40247-1.0194,0.12782-2.656,0.43463-3.6368,0.6818-0.98081,0.24715-2.073,0.45097-2.4272,0.45291-0.35413,0.002-0.95704,0.16547-1.3398,0.3634-0.38274,0.19793-1.2832,0.46584-2.001,0.59536-0.71779,0.12952-1.8226,0.34008-2.455,0.46792-0.63248,0.12784-1.7709,0.25599-2.5299,0.28478-0.75897,0.0288-1.7112,0.22552-2.116,0.43716-0.40483,0.21164-1.2137,0.38479-1.7975,0.38479-0.58381,0-1.2652,0.10905-1.5143,0.24233-0.24904,0.13329-1.599,0.39293-3,0.57701-1.401,0.18406-2.6566,0.40231-2.7904,0.48498-0.13378,0.0827-0.9245,0.22824-1.7572,0.32348-4.1425,0.47379-6.281,0.84663-8.5286,1.4869-0.56923,0.16216-1.9147,0.35861-2.9899,0.43656-2.2397,0.16237-4.1954,0.47937-5.9001,0.95638-0.65191,0.18242-2.6183,0.48215-4.3698,0.66607-3.643,0.38256-6.2515,0.75544-6.5424,0.93528-0.3664,0.22645-6.9745,1.2443-8.0991,1.2475-0.60916,0.002-1.3233,0.11862-1.587,0.25973-0.61661,0.33-3.0886,0.71354-5.0434,0.78249-0.84055,0.0297-1.6485,0.1282-1.7954,0.21899-0.43769,0.27051-3.0385,0.64666-8.6357,1.249-1.7275,0.1859-3.6281,0.61567-4.9448,1.1181-0.31623,0.12068-1.7652,0.34417-3.2198,0.49664-3.1162,0.32661-5.0151,0.63872-6.4397,1.0585-0.87899,0.25899-3.0138,0.53777-5.2897,0.69077-2.0868,0.1403-3.9079,0.45893-4.5998,0.80484-0.44273,0.22133-1.9952,0.57517-3.4498,0.7863-1.6902,0.24532-3.1015,0.59739-3.9098,0.97537-0.69571,0.32531-2.0412,0.8301-2.9899,1.1217-4.8146,1.48-5.786,1.9683-5.3729,2.7006,0.57308,1.0161,2.583,2.766,4.1664,3.6275,0.97979,0.53308,2.1001,1.2046,2.4896,1.4922,0.38947,0.28764,1.3727,0.83991,2.1849,1.2273,0.98662,0.47053,1.9729,1.2103,2.9717,2.2289,0.82221,0.83854,1.9606,1.9811,2.5299,2.539,1.011,0.99084,1.0349,1.048,1.0312,2.4624-0.003,1.337-0.07,1.5261-0.86778,2.4673-1.0994,1.297-3.383,3.2037-3.8391,3.2056-0.19202,0.00069-0.65961,0.17047-1.0391,0.37708-1.3494,0.73475-3.2284,1.6305-3.7904,1.8069-0.31379,0.0985-0.83126,0.36649-1.1499,0.59548-0.31869,0.229-1.452,0.63541-2.5184,0.90314s-2.5154,0.77767-3.2198,1.1332c-1.8455,0.93137-5.3423,2.2178-7.6056,2.7979-1.0752,0.2756-2.3389,0.6931-2.8082,0.92775-0.46931,0.23466-1.1546,0.42666-1.5229,0.42666-0.36827,0-1.7437,0.51256-3.0565,1.139-1.3128,0.62646-2.8527,1.2102-3.4219,1.2972-0.56923,0.087-1.4631,0.40534-1.9863,0.70743-0.52324,0.30208-1.6208,0.68931-2.439,0.8605-0.81822,0.1712-1.7529,0.48507-2.0771,0.69751-0.32422,0.21243-1.5036,0.58157-2.6208,0.8203-1.1524,0.24627-2.7149,0.78745-3.6114,1.2509-0.86906,0.44923-1.7488,0.81628-1.9549,0.81566-0.20614-0.0007-0.84053,0.14809-1.4097,0.3305-0.56923,0.1824-1.8629,0.55284-2.8749,0.82321-1.012,0.27036-2.8231,0.93225-4.0248,1.4709-1.2017,0.5386-3.0129,1.1737-4.0248,1.4113-1.012,0.23758-2.0469,0.5531-2.2999,0.70116-0.25298,0.14804-0.74077,0.33426-1.084,0.41379-0.34319,0.0795-1.2403,0.50583-1.9936,0.94732-0.75328,0.44149-1.5103,0.8027-1.6822,0.8027-0.17194,0-0.51676,0.14052-0.76627,0.31227-0.24951,0.17174-0.86763,0.43905-1.3736,0.59402-0.90899,0.27842-1.5535,0.55076-4.0248,1.7006-0.69571,0.3237-1.847,0.84574-2.5585,1.1601-1.012,0.44711-1.3292,0.7126-1.4572,1.2197-0.14325,0.56735-0.0416,0.7535,0.81582,1.4936,0.5387,0.46499,1.4014,1.02,1.9172,1.2334,0.51576,0.21337,1.3218,0.5454,1.7911,0.73784,0.56862,0.23314,1.1681,0.29957,1.7966,0.19908,0.53186-0.0851,1.338-0.0326,1.8484,0.12036,0.76088,0.22797,0.96941,0.21393,1.3083-0.0881,0.2545-0.22682,1.0814-0.41422,2.243-0.50832,2.1556-0.17462,3.8516-0.52147,4.6906-0.95929,0.32952-0.17195,1.0648-0.31777,1.6341-0.32406,0.56923-0.007,1.5007-0.11258,2.0699-0.23621,0.56922-0.12363,1.4489-0.28305,1.9549-0.35429,0.50597-0.0713,1.3102-0.27605,1.7871-0.45517,0.47692-0.17912,1.1358-0.32567,1.4641-0.32567,0.60762,0,2.349-0.50006,3.7138-1.0665,0.4154-0.17239,1.0364-0.31416,1.3799-0.31504,0.74137-0.002,3.8985-1.0413,4.3818-1.4426,0.18876-0.15673,1.0629-0.29185,1.9793-0.30596,1.1111-0.0171,1.9869-0.17818,2.7114-0.49865,0.73096-0.32333,2.2224-0.59467,4.7058-0.85612,2.761-0.29066,3.9123-0.5128,4.7856-0.92331,0.79562-0.374,2.4255-0.72782,5.2898-1.1483,2.2769-0.33428,4.4503-0.76962,4.8298-0.96742,0.37948-0.19781,1.2982-0.43902,2.0417-0.53602,0.77349-0.10094,1.6303-0.38239,2.0031-0.65798,0.43772-0.32362,0.99637-0.4816,1.703-0.4816,0.57841,0,1.4232-0.15524,1.8773-0.34498,1.6474-0.68832,3.2994-0.22118,3.2994,0.933,0,0.59467-0.31081,0.94364-1.832,2.0569-0.51856,0.37948-1.244,0.92705-1.6122,1.2168-0.36813,0.28978-1.2703,0.63566-2.0049,0.76861-0.73456,0.13296-1.9048,0.3839-2.6005,0.55764-1.2682,0.31671-6.9285,1.3233-9.0846,1.6156-0.63246,0.0857-1.4294,0.29768-1.771,0.471-0.34158,0.17331-0.89174,0.31512-1.2226,0.31512-0.33083,0-0.7897,0.10071-1.0197,0.2238-0.22999,0.12309-1.5945,0.3928-3.0322,0.59936s-2.7124,0.46808-2.8326,0.58116c-0.12016,0.11309-0.58593,0.2056-1.035,0.2056-1.5076,0-5.2922,0.92783-5.962,1.4616-0.17375,0.13848-0.89822,0.31884-1.6099,0.40082-0.71172,0.082-1.8632,0.3055-2.559,0.49672-0.69572,0.19123-1.781,0.42137-2.4119,0.51144-0.6308,0.0901-1.4588,0.32515-1.8399,0.52241-0.67181,0.3477-3.1502,0.75557-5.0954,0.83857-0.52394,0.0223-1.1161,0.17632-1.3159,0.34215-0.41647,0.34564-1.5393,0.6624-3.3871,0.95556-0.70723,0.1122-1.5869,0.32619-1.9549,0.47554-0.36797,0.14935-1.1348,0.35369-1.704,0.45407-0.56922,0.10039-1.5524,0.28387-2.1849,0.40774-1.5591,0.30533-5.3096,0.45069-6.4397,0.24959z"
       style="fill:#333333" />
  </g>
</svg>
