<?xml version="1.0" encoding="UTF-8" standalone="no"?>
<svg
   xmlns:dc="http://purl.org/dc/elements/1.1/"
   xmlns:cc="http://creativecommons.org/ns#"
   xmlns:rdf="http://www.w3.org/1999/02/22-rdf-syntax-ns#"
   xmlns:svg="http://www.w3.org/2000/svg"
   xmlns="http://www.w3.org/2000/svg"
   id="svg2"
   height="52"
   width="296"
   version="1.2">
  <defs
     id="defs4" />
  <metadata
     id="metadata7">
    <rdf:RDF>
      <cc:Work
         rdf:about="">
        <dc:format>image/svg+xml</dc:format>
        <dc:type
           rdf:resource="http://purl.org/dc/dcmitype/StillImage" />
        <dc:title></dc:title>
      </cc:Work>
    </rdf:RDF>
  </metadata>
  <path
     id="rect5108-7-0"
     d="M 5 0 C 4.446 0 4 0.446 4 1 C 4 1.554 4.446 2 5 2 L 291 2 C 291.554 2 292 1.554 292 1 C 292 0.446 291.554 0 291 0 L 5 0 z M 1 4 C 0.446 4 0 4.446 0 5 C 0 5.554 0.446 6 1 6 L 295 6 C 295.554 6 296 5.554 296 5 C 296 4.446 295.554 4 295 4 L 1 4 z M 222.08984 9.3300781 C 221.93575 9.9464335 221.74285 10.350358 221.51172 10.542969 C 221.31911 10.73558 220.95337 10.832031 220.41406 10.832031 L 200.65234 10.832031 L 200.65234 11.640625 C 201.2687 11.756192 201.67262 11.929023 201.86523 12.160156 C 202.05785 12.39129 202.1543 12.777095 202.1543 13.316406 L 202.1543 38.683594 C 202.1543 39.222905 202.05785 39.60871 201.86523 39.839844 C 201.67262 40.070977 201.2687 40.243808 200.65234 40.359375 L 200.65234 41.167969 L 209.37695 41.167969 L 209.37695 40.359375 C 208.7606 40.243808 208.35667 40.070977 208.16406 39.839844 C 207.97145 39.60871 207.875 39.222905 207.875 38.683594 L 207.875 27.935547 L 215.21484 27.935547 C 215.75415 27.935547 216.13801 28.031998 216.36914 28.224609 C 216.60027 28.378698 216.77506 28.764504 216.89062 29.380859 L 217.69922 29.380859 L 217.69922 21.580078 L 216.89062 21.580078 C 216.77506 22.196433 216.60027 22.600358 216.36914 22.792969 C 216.13801 22.98558 215.75415 23.082031 215.21484 23.082031 L 207.875 23.082031 L 207.875 15.626953 L 220.41406 15.626953 C 220.95337 15.626953 221.33918 15.723405 221.57031 15.916016 C 221.80145 16.108627 221.97428 16.514504 222.08984 17.130859 L 222.89844 17.130859 L 222.89844 9.3300781 L 222.08984 9.3300781 z M 26.314453 10.3125 C 24.311298 10.3125 22.462555 10.716424 20.767578 11.525391 C 19.072601 12.295835 17.609664 13.374919 16.376953 14.761719 C 15.182765 16.148518 14.238322 17.804358 13.544922 19.730469 C 12.890044 21.656579 12.5625 23.756487 12.5625 26.029297 C 12.5625 28.302107 12.890044 30.402015 13.544922 32.328125 C 14.238322 34.254235 15.182765 35.910075 16.376953 37.296875 C 17.609664 38.683675 19.072601 39.762759 20.767578 40.533203 C 22.462555 41.303647 24.311298 41.6875 26.314453 41.6875 C 27.855341 41.6875 29.203709 41.494597 30.359375 41.109375 C 31.553563 40.685631 32.574386 40.243517 33.421875 39.78125 C 34.269364 39.318983 34.944524 38.894988 35.445312 38.509766 C 35.984623 38.086021 36.408619 37.875 36.716797 37.875 C 36.94793 37.875 37.351854 38.067903 37.929688 38.453125 L 38.449219 37.931641 L 32.902344 30.998047 L 32.267578 31.460938 C 32.498711 32.038771 32.613281 32.480885 32.613281 32.789062 C 32.613281 33.212807 32.458568 33.656874 32.150391 34.119141 C 31.842213 34.581407 31.418217 35.005403 30.878906 35.390625 C 30.339595 35.737325 29.68646 36.024726 28.916016 36.255859 C 28.145571 36.486993 27.277508 36.603516 26.314453 36.603516 C 25.197309 36.603516 24.158368 36.352351 23.195312 35.851562 C 22.232257 35.350774 21.402384 34.639377 20.708984 33.714844 C 20.015585 32.790311 19.458901 31.673036 19.035156 30.363281 C 18.649934 29.053526 18.457031 27.588636 18.457031 25.970703 C 18.457031 24.35277 18.649934 22.889833 19.035156 21.580078 C 19.420378 20.231801 19.958944 19.094455 20.652344 18.169922 C 21.345744 17.245389 22.173664 16.533992 23.136719 16.033203 C 24.099774 15.532414 25.158787 15.28125 26.314453 15.28125 C 27.277508 15.28125 28.145571 15.415891 28.916016 15.685547 C 29.724982 15.91668 30.398189 16.224153 30.9375 16.609375 C 31.515333 16.956075 31.939329 17.341881 32.208984 17.765625 C 32.517162 18.189369 32.671875 18.555104 32.671875 18.863281 C 32.671875 19.055892 32.575424 19.383437 32.382812 19.845703 L 33.076172 20.134766 L 37.177734 13.142578 L 36.542969 12.796875 C 36.04218 13.182097 35.694564 13.375 35.501953 13.375 C 35.27082 13.375 34.925157 13.220287 34.462891 12.912109 C 34.039146 12.565409 33.442319 12.217794 32.671875 11.871094 C 31.939953 11.485872 31.053772 11.140209 30.013672 10.832031 C 28.973572 10.485331 27.739775 10.3125 26.314453 10.3125 z M 282.34375 14.818359 C 282.18966 15.434715 281.99676 15.840592 281.76562 16.033203 C 281.57301 16.187292 281.20728 16.263672 280.66797 16.263672 L 263.56445 16.263672 L 263.56445 17.072266 C 264.18081 17.226354 264.58473 17.419257 264.77734 17.650391 C 264.96995 17.881524 265.06641 18.26733 265.06641 18.806641 L 265.06641 38.683594 C 265.06641 39.222905 264.96995 39.60871 264.77734 39.839844 C 264.58473 40.032455 264.18081 40.205286 263.56445 40.359375 L 263.56445 41.167969 L 281.13086 41.167969 C 281.67017 41.167969 282.0359 41.26442 282.22852 41.457031 C 282.45965 41.649642 282.65255 42.053567 282.80664 42.669922 L 283.61523 42.669922 L 283.61523 35.332031 L 282.80664 35.332031 C 282.65255 35.948387 282.45965 36.352311 282.22852 36.544922 C 282.0359 36.737533 281.67017 36.833984 281.13086 36.833984 L 270.15234 36.833984 L 270.15234 30.419922 L 276.16016 30.419922 C 276.69947 30.419922 277.08527 30.516373 277.31641 30.708984 C 277.54754 30.901595 277.72037 31.30552 277.83594 31.921875 L 278.64648 31.921875 L 278.64648 24.757812 L 277.83594 24.757812 C 277.68185 25.374168 277.4909 25.778092 277.25977 25.970703 C 277.06715 26.124792 276.69947 26.203125 276.16016 26.203125 L 270.15234 26.203125 L 270.15234 20.482422 L 280.66797 20.482422 C 281.20728 20.482422 281.59309 20.578873 281.82422 20.771484 C 282.05535 20.964095 282.22818 21.36802 282.34375 21.984375 L 283.15234 21.984375 L 283.15234 14.818359 L 282.34375 14.818359 z M 92.849609 15.744141 C 91.11611 15.744141 89.516578 16.071685 88.052734 16.726562 C 86.627413 17.342918 85.395568 18.229099 84.355469 19.384766 C 83.315369 20.540432 82.487449 21.906918 81.871094 23.486328 C 81.293261 25.065739 81.003906 26.799912 81.003906 28.6875 C 81.003906 30.575088 81.293261 32.32738 81.871094 33.945312 C 82.487449 35.524723 83.315369 36.891209 84.355469 38.046875 C 85.434091 39.202541 86.706078 40.108794 88.169922 40.763672 C 89.633766 41.418549 91.231344 41.746094 92.964844 41.746094 C 94.351643 41.746094 95.545298 41.573262 96.546875 41.226562 C 97.548452 40.918385 98.396444 40.570769 99.089844 40.185547 C 99.821766 39.761803 100.40047 39.396068 100.82422 39.087891 C 101.28649 38.741191 101.65222 38.568359 101.92188 38.568359 C 102.15301 38.568359 102.55693 38.761262 103.13477 39.146484 L 103.6543 38.625 L 98.396484 32.210938 L 97.818359 32.673828 C 98.049493 33.251661 98.166016 33.713847 98.166016 34.060547 C 98.166016 34.908035 97.70383 35.659576 96.779297 36.314453 C 95.893286 36.930808 94.71775 37.238281 93.253906 37.238281 C 91.019618 37.238281 89.285445 36.486741 88.052734 34.984375 C 86.820024 33.482009 86.205078 31.384055 86.205078 28.6875 C 86.205078 26.029468 86.820024 23.92956 88.052734 22.388672 C 89.323967 20.809261 90.961689 20.019531 92.964844 20.019531 C 93.812332 20.019531 94.563872 20.134101 95.21875 20.365234 C 95.873628 20.557845 96.412193 20.80901 96.835938 21.117188 C 97.298204 21.425365 97.64582 21.772981 97.876953 22.158203 C 98.108086 22.504903 98.222656 22.832447 98.222656 23.140625 C 98.222656 23.294714 98.128158 23.602187 97.935547 24.064453 L 98.570312 24.353516 L 102.44141 17.880859 L 101.86328 17.535156 C 101.63215 17.689245 101.43925 17.803815 101.28516 17.880859 C 101.13107 17.957904 100.95824 17.996094 100.76562 17.996094 C 100.53449 17.996094 100.22702 17.881524 99.841797 17.650391 C 99.456575 17.419257 98.956199 17.168093 98.339844 16.898438 C 97.723488 16.59026 96.951877 16.320977 96.027344 16.089844 C 95.141333 15.85871 94.08232 15.744141 92.849609 15.744141 z M 169.82227 15.744141 C 168.05024 15.744141 166.43259 16.071685 164.96875 16.726562 C 163.50491 17.342918 162.23292 18.229099 161.1543 19.384766 C 160.1142 20.540432 159.3044 21.906918 158.72656 23.486328 C 158.14873 25.065739 157.86133 26.799912 157.86133 28.6875 C 157.86133 30.575088 158.14873 32.32738 158.72656 33.945312 C 159.3044 35.524723 160.1142 36.891209 161.1543 38.046875 C 162.23292 39.202541 163.50491 40.108794 164.96875 40.763672 C 166.43259 41.380027 168.05024 41.6875 169.82227 41.6875 C 171.59429 41.6875 173.21194 41.380027 174.67578 40.763672 C 176.13963 40.108794 177.39154 39.202541 178.43164 38.046875 C 179.51026 36.891209 180.33818 35.524723 180.91602 33.945312 C 181.49385 32.365902 181.7832 30.61361 181.7832 28.6875 C 181.7832 26.799912 181.49385 25.065739 180.91602 23.486328 C 180.33818 21.906918 179.51026 20.540432 178.43164 19.384766 C 177.39154 18.229099 176.13963 17.342918 174.67578 16.726562 C 173.21194 16.071685 171.59429 15.744141 169.82227 15.744141 z M 143.32617 15.859375 C 141.40006 15.859375 139.62965 16.186919 138.01172 16.841797 C 136.43231 17.496674 135.06387 18.400974 133.9082 19.556641 C 132.75254 20.712307 131.84824 22.080746 131.19336 23.660156 C 130.53848 25.201045 130.21094 26.876956 130.21094 28.6875 C 130.21094 30.61361 130.49834 32.385973 131.07617 34.003906 C 131.69253 35.583317 132.56059 36.949802 133.67773 38.105469 C 134.8334 39.261135 136.19989 40.167388 137.7793 40.822266 C 139.39723 41.438621 141.20778 41.746094 143.21094 41.746094 C 145.48375 41.746094 147.44901 41.398478 149.10547 40.705078 C 150.80045 39.973156 152.32164 38.817692 153.66992 37.238281 L 153.03516 36.544922 L 153.03516 30.882812 C 153.03516 30.304979 153.14973 29.880984 153.38086 29.611328 C 153.61199 29.30315 154.03599 29.092129 154.65234 28.976562 L 154.65234 28.166016 L 144.30859 28.166016 C 143.73076 28.166016 143.30872 28.089636 143.03906 27.935547 C 142.76941 27.742936 142.59462 27.377202 142.51758 26.837891 L 141.82422 26.837891 L 141.82422 33.771484 L 142.51758 33.771484 C 142.59462 33.155129 142.72926 32.769323 142.92188 32.615234 C 143.15301 32.422623 143.577 32.328125 144.19336 32.328125 L 147.94922 32.328125 L 147.94922 35.966797 C 147.2173 36.506108 146.5059 36.891914 145.8125 37.123047 C 145.15762 37.35418 144.4242 37.470703 143.61523 37.470703 C 141.18834 37.470703 139.20495 36.699091 137.66406 35.158203 C 136.1617 33.578793 135.41016 31.422577 135.41016 28.6875 C 135.41016 26.029468 136.10343 23.92956 137.49023 22.388672 C 138.91556 20.809261 140.78437 20.019531 143.0957 20.019531 C 145.02181 20.019531 146.46663 20.365194 147.42969 21.058594 C 148.43126 21.751994 148.93164 22.447225 148.93164 23.140625 C 148.93164 23.333236 148.83519 23.658827 148.64258 24.121094 L 149.33594 24.410156 L 153.66992 18.169922 L 153.0918 17.824219 C 152.86066 17.978308 152.66776 18.112949 152.51367 18.228516 C 152.35958 18.30556 152.18675 18.34375 151.99414 18.34375 C 151.76301 18.34375 151.41734 18.227227 150.95508 17.996094 C 150.49281 17.726438 149.9141 17.439037 149.2207 17.130859 C 148.5273 16.784159 147.67931 16.494805 146.67773 16.263672 C 145.71468 15.994016 144.5974 15.859375 143.32617 15.859375 z M 40.498047 16.263672 L 40.498047 17.072266 C 41.114402 17.226354 41.52028 17.419257 41.712891 17.650391 C 41.905502 17.881524 42.001953 18.26733 42.001953 18.806641 L 42.001953 38.683594 C 42.001953 39.222905 41.905502 39.60871 41.712891 39.839844 C 41.52028 40.032455 41.114402 40.205286 40.498047 40.359375 L 40.498047 41.167969 L 48.53125 41.167969 L 48.53125 40.359375 C 47.914895 40.205286 47.509017 40.032455 47.316406 39.839844 C 47.162317 39.60871 47.085938 39.222905 47.085938 38.683594 L 47.085938 29.841797 L 57.486328 29.841797 L 57.486328 38.683594 C 57.486328 39.222905 57.39183 39.60871 57.199219 39.839844 C 57.04513 40.032455 56.659324 40.205286 56.042969 40.359375 L 56.042969 41.167969 L 64.074219 41.167969 L 64.074219 40.359375 C 63.457863 40.205286 63.053939 40.032455 62.861328 39.839844 C 62.668717 39.60871 62.572266 39.222905 62.572266 38.683594 L 62.572266 18.806641 C 62.572266 18.26733 62.668717 17.881524 62.861328 17.650391 C 63.053939 17.419257 63.457863 17.226354 64.074219 17.072266 L 64.074219 16.263672 L 56.042969 16.263672 L 56.042969 17.072266 C 56.659324 17.226354 57.04513 17.419257 57.199219 17.650391 C 57.39183 17.881524 57.486328 18.26733 57.486328 18.806641 L 57.486328 25.740234 L 47.085938 25.740234 L 47.085938 18.806641 C 47.085937 18.26733 47.162317 17.881524 47.316406 17.650391 C 47.509017 17.419257 47.914895 17.226354 48.53125 17.072266 L 48.53125 16.263672 L 40.498047 16.263672 z M 68.777344 16.263672 L 68.777344 17.072266 C 69.393699 17.226354 69.777552 17.419257 69.931641 17.650391 C 70.124252 17.881524 70.220703 18.26733 70.220703 18.806641 L 70.220703 38.683594 C 70.220703 39.222905 70.124252 39.60871 69.931641 39.839844 C 69.777552 40.032455 69.393699 40.205286 68.777344 40.359375 L 68.777344 41.167969 L 76.808594 41.167969 L 76.808594 40.359375 C 76.192238 40.205286 75.788314 40.032455 75.595703 39.839844 C 75.403092 39.60871 75.306641 39.222905 75.306641 38.683594 L 75.306641 18.806641 C 75.306641 18.26733 75.403092 17.881524 75.595703 17.650391 C 75.788314 17.419257 76.192238 17.226354 76.808594 17.072266 L 76.808594 16.263672 L 68.777344 16.263672 z M 111.89258 16.263672 L 111.89258 17.072266 C 112.66302 17.187832 113.04688 17.457115 113.04688 17.880859 C 113.04687 18.227559 112.99057 18.536985 112.875 18.806641 L 105.59375 38.683594 C 105.40114 39.107338 105.22831 39.453001 105.07422 39.722656 C 104.95865 39.992312 104.55277 40.205286 103.85938 40.359375 L 103.85938 41.167969 L 111.37109 41.167969 L 111.37109 40.359375 C 110.44656 40.243808 109.98438 39.858003 109.98438 39.203125 C 109.98438 38.971992 110.00445 38.79916 110.04297 38.683594 L 111.31445 35.101562 L 120.50195 35.101562 L 121.71484 38.683594 C 121.83041 39.030294 121.88867 39.281458 121.88867 39.435547 C 121.88867 39.705202 121.77215 39.896152 121.54102 40.011719 C 121.3484 40.127285 121.04093 40.243808 120.61719 40.359375 L 120.61719 41.167969 L 128.5332 41.167969 L 128.5332 40.359375 C 127.99389 40.166764 127.62816 39.95379 127.43555 39.722656 C 127.24294 39.453001 127.0701 39.107338 126.91602 38.683594 L 120.03906 18.806641 C 119.96202 18.536985 119.90376 18.324011 119.86523 18.169922 C 119.82671 17.977311 119.80859 17.842669 119.80859 17.765625 C 119.80859 17.49597 120.21252 17.264877 121.02148 17.072266 L 121.02148 16.263672 L 111.89258 16.263672 z M 224.97266 16.263672 L 224.97266 17.072266 C 225.58901 17.226354 225.97286 17.419257 226.12695 17.650391 C 226.31956 17.881524 226.41602 18.26733 226.41602 18.806641 L 226.41602 38.683594 C 226.41602 39.222905 226.31956 39.60871 226.12695 39.839844 C 225.97286 40.032455 225.58901 40.205286 224.97266 40.359375 L 224.97266 41.167969 L 233.00391 41.167969 L 233.00391 40.359375 C 232.38755 40.205286 231.98363 40.032455 231.79102 39.839844 C 231.5984 39.60871 231.50195 39.222905 231.50195 38.683594 L 231.50195 18.806641 C 231.50195 18.26733 231.5984 17.881524 231.79102 17.650391 C 231.98363 17.419257 232.38755 17.226354 233.00391 17.072266 L 233.00391 16.263672 L 224.97266 16.263672 z M 237.71875 16.263672 L 237.71875 17.072266 C 238.33511 17.226354 238.74098 17.419257 238.93359 17.650391 C 239.1262 17.881524 239.22266 18.26733 239.22266 18.806641 L 239.22266 38.683594 C 239.22266 39.222905 239.1262 39.60871 238.93359 39.839844 C 238.74098 40.032455 238.33511 40.205286 237.71875 40.359375 L 237.71875 41.167969 L 245.75195 41.167969 L 245.75195 40.359375 C 245.1356 40.205286 244.73167 40.032455 244.53906 39.839844 C 244.38497 39.60871 244.30664 39.222905 244.30664 38.683594 L 244.30664 30.652344 L 248.52539 30.652344 L 252.68555 38.683594 C 252.91668 39.14586 253.0332 39.473405 253.0332 39.666016 C 253.0332 39.974193 252.60921 40.205286 251.76172 40.359375 L 251.76172 41.167969 L 260.3125 41.167969 L 260.3125 40.359375 C 259.42649 40.051197 258.75328 39.472489 258.29102 38.625 L 253.72656 30.074219 C 255.49858 29.611952 256.845 28.784032 257.76953 27.589844 C 258.73259 26.357133 259.21484 24.874124 259.21484 23.140625 C 259.21484 21.098948 258.4633 19.441155 256.96094 18.169922 C 255.45857 16.898689 253.22402 16.263672 250.25781 16.263672 L 237.71875 16.263672 z M 169.82227 20.134766 C 171.82542 20.134766 173.44307 20.924496 174.67578 22.503906 C 175.94701 24.044795 176.58203 26.106512 176.58203 28.6875 C 176.58203 31.229966 175.96513 33.28973 174.73242 34.869141 C 173.49971 36.410029 171.86394 37.181641 169.82227 37.181641 C 167.74207 37.181641 166.08427 36.430101 164.85156 34.927734 C 163.65737 33.425368 163.06055 31.345532 163.06055 28.6875 C 163.06055 26.029468 163.67745 23.949632 164.91016 22.447266 C 166.14287 20.906377 167.78059 20.134766 169.82227 20.134766 z M 244.30664 20.365234 L 249.21875 20.365234 C 250.83668 20.365234 252.03034 20.596327 252.80078 21.058594 C 253.57123 21.482338 253.95703 22.25395 253.95703 23.371094 C 253.95703 24.565282 253.57123 25.413274 252.80078 25.914062 C 252.06886 26.414851 250.93347 26.664062 249.39258 26.664062 L 244.30664 26.664062 L 244.30664 20.365234 z M 116.05273 21.984375 L 119.23047 31.228516 L 112.75781 31.228516 L 116.05273 21.984375 z M 1 46 C 0.446 46 0 46.446 0 47 C 0 47.554 0.446 48 1 48 L 295 48 C 295.554 48 296 47.554 296 47 C 296 46.446 295.554 46 295 46 L 1 46 z M 5 50 C 4.446 50 4 50.446 4 51 C 4 51.554 4.446 52 5 52 L 291 52 C 291.554 52 292 51.554 292 51 C 292 50.446 291.554 50 291 50 L 5 50 z "
     style="color:#000000;display:inline;overflow:visible;visibility:visible;fill:#da1c1c;fill-opacity:1;fill-rule:nonzero;stroke:none;stroke-width:2;marker:none;enable-background:accumulate" />
</svg>
