<?xml version="1.0" encoding="UTF-8" standalone="no"?>
<svg
   xmlns:dc="http://purl.org/dc/elements/1.1/"
   xmlns:cc="http://creativecommons.org/ns#"
   xmlns:rdf="http://www.w3.org/1999/02/22-rdf-syntax-ns#"
   xmlns:svg="http://www.w3.org/2000/svg"
   xmlns="http://www.w3.org/2000/svg"
   xmlns:sodipodi="http://sodipodi.sourceforge.net/DTD/sodipodi-0.dtd"
   xmlns:inkscape="http://www.inkscape.org/namespaces/inkscape"
   id="svg2"
   height="45.999886"
   width="473.78125"
   version="1.1"
   inkscape:version="0.91 r13725"
   sodipodi:docname="logo.svg">
  <sodipodi:namedview
     pagecolor="#ffffff"
     bordercolor="#666666"
     borderopacity="1"
     objecttolerance="10"
     gridtolerance="10"
     guidetolerance="10"
     inkscape:pageopacity="0"
     inkscape:pageshadow="2"
     inkscape:window-width="3200"
     inkscape:window-height="1674"
     id="namedview10"
     showgrid="false"
     inkscape:zoom="6.5219972"
     inkscape:cx="206.22517"
     inkscape:cy="22.999943"
     inkscape:window-x="0"
     inkscape:window-y="60"
     inkscape:window-maximized="1"
     inkscape:current-layer="svg2" />
  <defs
     id="defs4" />
  <metadata
     id="metadata7">
    <rdf:RDF>
      <cc:Work
         rdf:about="">
        <dc:format>image/svg+xml</dc:format>
        <dc:type
           rdf:resource="http://purl.org/dc/dcmitype/StillImage" />
        <dc:title />
      </cc:Work>
    </rdf:RDF>
  </metadata>
  <path
     id="text3022"
     d="m 127.625,13.4688 c -1.15601,1.01e-4 -2.17809,0.219806 -3.15625,0.6875 -0.97817,0.44537 -1.85111,1.073353 -2.5625,1.875 -0.68916,0.801646 -1.22485,1.761624 -1.625,2.875 -0.37793,1.113477 -0.5625,2.342463 -0.5625,3.65625 0,1.313888 0.18457,2.511624 0.5625,3.625 0.40015,1.113375 0.93584,2.073353 1.625,2.875 0.71139,0.801646 1.58433,1.429629 2.5625,1.875 0.97816,0.44537 2.00024,0.656149 3.15625,0.65625 0.88923,-1.01e-4 1.70807,-0.08966 2.375,-0.3125 0.68916,-0.244857 1.29216,-0.514069 1.78125,-0.78125 0.48907,-0.267182 0.86724,-0.527265 1.15625,-0.75 0.31123,-0.244858 0.54088,-0.34375 0.71875,-0.34375 0.13337,0 0.35402,0.08976 0.6875,0.3125 l 0.3125,-0.28125 -3.21875,-4 -0.375,0.25 c 0.13337,0.334053 0.21874,0.571812 0.21875,0.75 -1e-5,0.244959 -0.10342,0.545318 -0.28125,0.8125 -0.17786,0.267283 -0.40754,0.496116 -0.71875,0.71875 -0.31124,0.200412 -0.68039,0.366359 -1.125,0.5 -0.44463,0.133641 -0.97548,0.1875 -1.53125,0.1875 -0.6447,0 -1.22549,-0.147994 -1.78125,-0.4375 -0.55579,-0.289506 -1.0061,-0.715535 -1.40625,-1.25 -0.40016,-0.534363 -0.75547,-1.149151 -1,-1.90625 -0.22231,-0.7571 -0.3125,-1.595962 -0.3125,-2.53125 0,-0.935288 0.0901,-1.805401 0.3125,-2.5625 0.22231,-0.779423 0.56858,-1.403035 0.96875,-1.9375 0.40014,-0.534364 0.85046,-0.960494 1.40625,-1.25 0.55576,-0.289506 1.14556,-0.4375 1.8125,-0.4375 0.55577,0 1.08662,0.06238 1.53125,0.21875 0.46684,0.13354 0.845,0.308615 1.15625,0.53125 0.33344,0.200412 0.56313,0.442643 0.71875,0.6875 0.17784,0.24506 0.28124,0.446913 0.28125,0.625 -1e-5,0.111419 -0.0451,0.295217 -0.15625,0.5625 l 0.40625,0.1875 2.34375,-4.03125 -0.34375,-0.21875 c -0.28901,0.222736 -0.48261,0.343851 -0.59375,0.34375 -0.1334,1.01e-4 -0.32699,-0.103062 -0.59375,-0.28125 -0.24456,-0.200412 -0.61789,-0.424487 -1.0625,-0.625 -0.4224,-0.222635 -0.93103,-0.415561 -1.53125,-0.59375 C 129.181,13.549639 128.44754,13.468901 127.625,13.4688 Z M 0,13.75005 0,14.2188 c 0.57801,0.200512 0.92912,0.545603 1.0625,0.96875 L 5.59375,29.8438 c 0.0445,0.178188 0.0625,0.33948 0.0625,0.40625 0,0.334053 -0.31923,0.526878 -0.875,0.59375 l 0,0.46875 4.875,0 0,-0.46875 C 9.21163,30.732381 8.99999,30.584488 9,30.4063 8.99999,30.250435 9.0272,30.044211 9.0937,29.8438 l 2.59375,-10.25 3.03125,10.25 c 0.0222,0.04445 0.0312,0.138683 0.0312,0.25 -10e-6,0.423047 -0.30602,0.683128 -0.90625,0.75 l 0,0.46875 4.875,0 0,-0.46875 c -0.46686,-0.08889 -0.71877,-0.255142 -0.71875,-0.5 -2e-5,-0.08889 -2e-5,-0.183229 0,-0.25 0.0222,-0.06667 0.0402,-0.160906 0.0625,-0.25 l 4.21875,-14.625 c 0.089,-0.267182 0.16105,-0.460109 0.25,-0.59375 0.11113,-0.155763 0.31374,-0.317156 0.625,-0.40625 l 0,-0.46875 -4.4375,0 0,0.46875 c 0.51128,0.02222 0.74998,0.228548 0.75,0.5625 -2e-5,0.06667 -0.009,0.12073 -0.0312,0.1875 -2e-5,0.06667 -0.009,0.160905 -0.0312,0.25 L 16.46875,26.1563 13.1875,15.2188 C 13.143,15.040712 13.125,14.919698 13.125,14.87505 c -10e-6,-0.423047 0.29279,-0.656149 0.9375,-0.65625 l 0,-0.46875 -4.4375,0 0,0.46875 c 0.55576,1.01e-4 0.81249,0.21515 0.8125,0.59375 -10e-6,0.06667 -0.009,0.12073 -0.0312,0.1875 -10e-6,0.04445 -0.009,0.129655 -0.0312,0.21875 L 7.4376,26.1563 4.2501,15.0938 C 4.2279,15.04935 4.2189,14.964144 4.2189,14.87505 c 0,-0.356175 0.29217,-0.589379 0.78125,-0.65625 l 0,-0.46875 -5,0 z m 237.5625,0 0,0.4375 c 0.37792,0.08889 0.58955,0.210109 0.65625,0.34375 0.089,0.133541 0.125,0.375771 0.125,0.6875 l 0,14.625 c 0,0.311729 -0.036,0.55396 -0.125,0.6875 -0.0667,0.111418 -0.27833,0.223405 -0.65625,0.3125 l 0,0.46875 4.96875,0 0,-0.46875 c -0.37792,-0.08889 -0.62984,-0.201082 -0.71875,-0.3125 -0.089,-0.13354 -0.12501,-0.384798 -0.125,-0.71875 l 0,-5.96875 2.9375,0 2.9375,6 c 0.13338,0.311729 0.21874,0.535906 0.21875,0.625 -1e-5,0.111318 -0.0764,0.205453 -0.1875,0.25 -0.11117,0.04445 -0.25547,0.08055 -0.5,0.125 l 0,0.46875 5.25,0 0,-0.46875 c -0.55579,-0.200412 -0.93395,-0.563656 -1.15625,-1.03125 l -3.15625,-6.3125 c 1.20045,-0.378601 2.1185,-0.939326 2.71875,-1.71875 0.60021,-0.779322 0.87498,-1.721449 0.875,-2.8125 -2e-5,-1.670165 -0.51767,-2.921759 -1.5625,-3.8125 -1.02264,-0.912964 -2.52147,-1.40625 -4.5,-1.40625 z m 189.5,0 0,0.46875 c 0.35569,0.08889 0.56732,0.241459 0.65625,0.375 0.11115,0.111317 0.1875,0.313271 0.1875,0.625 l 0,14.625 c 0,0.311729 -0.0764,0.55396 -0.1875,0.6875 -0.089,0.111418 -0.30056,0.223405 -0.65625,0.3125 l 0,0.46875 5.09375,0 0,-0.46875 c -0.3557,-0.08889 -0.57634,-0.201082 -0.6875,-0.3125 -0.11116,-0.13354 -0.18751,-0.375771 -0.1875,-0.6875 l 0,-14.625 c -10e-6,-0.311729 0.0764,-0.513683 0.1875,-0.625 0.11116,-0.133541 0.3318,-0.285906 0.6875,-0.375 l 0,-0.46875 z m -390.5,2.3125 c -0.089,0.356276 -0.21038,0.607433 -0.34375,0.71875 -0.11115,0.08889 -0.31377,0.125 -0.625,0.125 l -9.875,0 0,0.46875 c 0.35569,0.08889 0.57635,0.210108 0.6875,0.34375 0.11115,0.13354 0.15625,0.344521 0.15625,0.65625 l 0,11.46875 c 0,0.311729 -0.0451,0.55396 -0.15625,0.6875 -0.11115,0.111418 -0.33181,0.223405 -0.6875,0.3125 l 0,0.46875 10.125,0 c 0.31122,0 0.51384,0.04483 0.625,0.15625 0.13337,0.111317 0.25482,0.331224 0.34375,0.6875 l 0.46875,0 0,-4.21875 -0.46875,0 c -0.089,0.356276 -0.21038,0.576182 -0.34375,0.6875 -0.11116,0.111418 -0.31378,0.15625 -0.625,0.15625 l -6.34375,0 0,-3.6875 3.46875,0 c 0.31122,1.01e-4 0.52285,0.04483 0.65625,0.15625 0.13338,0.111317 0.2458,0.362474 0.3125,0.71875 l 0.46875,0 0,-4.15625 -0.46875,0 c -0.0889,0.356377 -0.21037,0.607432 -0.34375,0.71875 -0.11116,0.08889 -0.31378,0.125 -0.625,0.125 l -3.46875,0 0,-3.3125 6.09375,0 c 0.31123,0 0.52285,0.04494 0.65625,0.15625 0.13337,0.111317 0.24579,0.362474 0.3125,0.71875 l 0.4375,0 0,-4.15625 z m 70.0625,0 c -0.089,0.356276 -0.21038,0.607433 -0.34375,0.71875 -0.11117,0.08889 -0.31377,0.125 -0.625,0.125 l -9.875,0 0,0.46875 c 0.35569,0.08889 0.57636,0.210108 0.6875,0.34375 0.11116,0.13354 0.1875,0.344521 0.1875,0.65625 l 0,11.46875 c 0,0.311729 -0.0764,0.55396 -0.1875,0.6875 -0.11114,0.111418 -0.33181,0.223405 -0.6875,0.3125 l 0,0.46875 4.625,0 0,-0.46875 c -0.35571,-0.06667 -0.57634,-0.178859 -0.6875,-0.3125 -0.0889,-0.13354 -0.12501,-0.375771 -0.125,-0.6875 l 0,-4.75 3.46875,0 c 0.31123,1.01e-4 0.52285,0.04483 0.65625,0.15625 0.13338,0.111317 0.21455,0.362474 0.28125,0.71875 l 0.46875,0 0,-4.15625 -0.46875,0 c -0.0889,0.356377 -0.17912,0.607432 -0.3125,0.71875 -0.11116,0.08889 -0.31377,0.125 -0.625,0.125 l -3.46875,0 0,-3.3125 6.0625,0 c 0.31123,0 0.52285,0.04494 0.65625,0.15625 0.13337,0.111317 0.24579,0.362474 0.3125,0.71875 l 0.46875,0 0,-4.15625 z m 159.59375,0 c -0.089,0.356276 -0.17913,0.607433 -0.3125,0.71875 -0.11115,0.08889 -0.34503,0.125 -0.65625,0.125 l -9.84375,0 0,0.46875 c 0.35569,0.08889 0.57635,0.210108 0.6875,0.34375 0.11115,0.13354 0.15625,0.344521 0.15625,0.65625 l 0,11.46875 c 0,0.311729 -0.0451,0.55396 -0.15625,0.6875 -0.11115,0.111418 -0.33181,0.223405 -0.6875,0.3125 l 0,0.46875 10.09375,0 c 0.31121,0 0.54509,0.04483 0.65625,0.15625 0.13337,0.111317 0.25481,0.331224 0.34375,0.6875 l 0.46875,0 0,-4.21875 -0.46875,0 c -0.089,0.356276 -0.21038,0.576182 -0.34375,0.6875 -0.11116,0.111418 -0.34504,0.15625 -0.65625,0.15625 l -6.3125,0 0,-3.6875 3.46875,0 c 0.31121,1.01e-4 0.52285,0.04483 0.65625,0.15625 0.13338,0.111317 0.2458,0.362474 0.3125,0.71875 l 0.46875,0 0,-4.15625 -0.46875,0 c -0.089,0.356377 -0.21037,0.607432 -0.34375,0.71875 -0.11117,0.08889 -0.31379,0.125 -0.625,0.125 l -3.46875,0 0,-3.3125 6.0625,0 c 0.31122,0 0.5541,0.04494 0.6875,0.15625 0.13337,0.111317 0.21454,0.362474 0.28125,0.71875 l 0.46875,0 0,-4.15625 z M 54.5,16.12505 l 0,4.21875 0.46875,0 c 0.0444,-0.31183 0.11661,-0.522609 0.25,-0.65625 0.15562,-0.133642 0.40752,-0.21875 0.71875,-0.21875 l 3.1875,0 0,10.375 c 0,0.311729 -0.036,0.55396 -0.125,0.6875 -0.089,0.111418 -0.30957,0.223406 -0.6875,0.3125 l 0,0.46875 4.59375,0 0,-0.46875 c -0.37792,-0.08889 -0.59858,-0.201082 -0.6875,-0.3125 -0.089,-0.13354 -0.15626,-0.375771 -0.15625,-0.6875 l 0,-10.375 3.40625,0 c 0.31123,0 0.52285,0.0847 0.65625,0.21875 0.1556,0.133641 0.26803,0.34442 0.3125,0.65625 l 0.46875,0 0,-4.21875 -0.46875,0 c -0.0445,0.334053 -0.11662,0.567156 -0.25,0.65625 -0.1334,0.08889 -0.38529,0.125 -0.71875,0.125 l -9.53125,0 c -0.33346,0 -0.58536,-0.03611 -0.71875,-0.125 -0.13339,-0.08889 -0.20553,-0.322197 -0.25,-0.65625 z m 229.65625,0 0,4.21875 0.5,0 c 0.0444,-0.31183 0.11661,-0.522609 0.25,-0.65625 0.15562,-0.133642 0.40752,-0.21875 0.71875,-0.21875 l 3.1875,0 0,10.375 c 0,0.311729 -0.036,0.55396 -0.125,0.6875 -0.089,0.111418 -0.30958,0.223406 -0.6875,0.3125 l 0,0.46875 4.59375,0 0,-0.46875 c -0.37792,-0.08889 -0.59859,-0.201082 -0.6875,-0.3125 -0.089,-0.13354 -0.15626,-0.375771 -0.15625,-0.6875 l 0,-10.375 3.375,0 c 0.31123,0 0.5541,0.0847 0.6875,0.21875 0.15561,0.133641 0.26803,0.34442 0.3125,0.65625 l 0.46875,0 0,-4.21875 -0.46875,0 c -0.0445,0.334053 -0.11662,0.567156 -0.25,0.65625 -0.1334,0.08889 -0.41654,0.125 -0.75,0.125 l -9.5,0 c -0.33346,0 -0.58536,-0.03611 -0.71875,-0.125 -0.13339,-0.08889 -0.20554,-0.322197 -0.25,-0.65625 z m 93.78125,0 0,4.21875 0.46875,0 c 0.0444,-0.31183 0.14786,-0.522609 0.28125,-0.65625 0.15562,-0.133642 0.37628,-0.21875 0.6875,-0.21875 l 3.21875,0 0,10.375 c 0,0.311729 -0.0674,0.55396 -0.15625,0.6875 -0.089,0.111418 -0.30959,0.223406 -0.6875,0.3125 l 0,0.46875 4.59375,0 0,-0.46875 c -0.37793,-0.08889 -0.59859,-0.201082 -0.6875,-0.3125 -0.089,-0.13354 -0.12501,-0.375771 -0.125,-0.6875 l 0,-10.375 3.40625,0 c 0.31121,0 0.52285,0.0847 0.65625,0.21875 0.1556,0.133641 0.23677,0.34442 0.28125,0.65625 l 0.46875,0 0,-4.21875 -0.46875,0 c -0.0444,0.334053 -0.11662,0.567156 -0.25,0.65625 -0.1334,0.08889 -0.35404,0.125 -0.6875,0.125 l -9.5625,0 c -0.33346,0 -0.55411,-0.03611 -0.6875,-0.125 -0.13339,-0.08889 -0.23679,-0.322197 -0.28125,-0.65625 z m -136.25,0.34375 3.28125,0 c 2.17862,0 3.28124,0.79393 3.28125,2.375 -1e-5,0.846194 -0.26996,1.434001 -0.78125,1.8125 -0.4891,0.356377 -1.27668,0.5625 -2.34375,0.5625 l -3.4375,0 z m -195.46875,0.125 c -1.82295,0 -3.24961,0.408178 -4.25,1.1875 C 40.99058,18.538501 40.5,19.583486 40.5,20.87505 c 0,0.578911 0.11242,1.045704 0.3125,1.46875 0.22231,0.423148 0.5061,0.782021 0.90625,1.09375 0.42238,0.31183 0.96227,0.630042 1.5625,0.875 0.62246,0.222736 1.33371,0.424589 2.15625,0.625 0.66693,0.178189 1.26091,0.294933 1.75,0.40625 0.5113,0.111418 0.91653,0.250385 1.25,0.40625 0.33346,0.155864 0.56313,0.339865 0.71875,0.5625 0.17785,0.222635 0.28124,0.559001 0.28125,0.9375 -1e-5,1.224794 -0.99923,1.8125 -3,1.8125 -0.66693,0 -1.27896,-0.04483 -1.8125,-0.15625 -0.53354,-0.133642 -0.96582,-0.290663 -1.34375,-0.46875 -0.37793,-0.178189 -0.67492,-0.361987 -0.875,-0.5625 C 42.20617,27.652416 42.125,27.459488 42.125,27.2813 c 0,-0.08889 0.0451,-0.304244 0.15625,-0.59375 l -0.4375,-0.15625 -1.9375,4.25 0.40625,0.15625 C 40.57927,30.625821 40.79992,30.4688 41,30.4688 c 0.15563,0 0.36725,0.07598 0.65625,0.1875 0.289,0.111419 0.68039,0.219135 1.125,0.375 0.44463,0.133641 0.95324,0.263682 1.53125,0.375 0.60023,0.111418 1.2754,0.15625 2.03125,0.15625 1.95631,0 3.45513,-0.385853 4.5,-1.1875 1.04484,-0.801646 1.56249,-1.976876 1.5625,-3.46875 -1e-5,-1.959671 -1.14771,-3.278421 -3.4375,-3.96875 -0.80032,-0.244858 -1.52959,-0.42896 -2.21875,-0.5625 -0.68916,-0.155966 -1.29217,-0.272608 -1.78125,-0.40625 -0.48908,-0.155864 -0.86726,-0.339764 -1.15625,-0.5625 -0.26678,-0.244959 -0.40625,-0.599076 -0.40625,-1 0,-0.467594 0.20261,-0.826569 0.625,-1.09375 0.44462,-0.267182 1.12397,-0.406149 1.96875,-0.40625 1.08931,1.01e-4 1.89976,0.192926 2.5,0.59375 0.60023,0.400823 0.90624,0.768724 0.90625,1.125 -1e-5,0.133642 -0.0854,0.357717 -0.21875,0.625 l 0.4375,0.1875 2.40625,-3.9375 -0.34375,-0.15625 c -0.28901,0.244958 -0.54091,0.34375 -0.71875,0.34375 -0.1334,0 -0.32699,-0.04483 -0.59375,-0.15625 -0.26677,-0.111318 -0.59985,-0.241359 -1,-0.375 C 48.99707,17.000435 48.53354,16.892618 48,16.7813 47.46646,16.669983 46.88568,16.5938 46.21875,16.5938 Z m 39.1875,0 c -1.02262,0 -1.96773,0.184 -2.8125,0.5625 -0.84478,0.356276 -1.56505,0.894394 -2.1875,1.5625 -0.60024,0.668005 -1.0728,1.462036 -1.40625,2.375 -0.33347,0.912964 -0.5,1.908948 -0.5,3 0,1.091152 0.16653,2.127212 0.5,3.0625 0.33345,0.912964 0.80601,1.675745 1.40625,2.34375 0.62245,0.668106 1.34272,1.1839 2.1875,1.5625 0.84477,0.356276 1.78988,0.531149 2.8125,0.53125 1.02263,-1.01e-4 1.96771,-0.174974 2.8125,-0.53125 0.84476,-0.3786 1.52474,-0.894394 2.125,-1.5625 0.62244,-0.668005 1.13527,-1.430786 1.46875,-2.34375 0.33344,-0.912964 0.49999,-1.949024 0.5,-3.0625 -1e-5,-1.091052 -0.16656,-2.087036 -0.5,-3 -0.33348,-0.912964 -0.84631,-1.706995 -1.46875,-2.375 -0.60026,-0.668106 -1.28024,-1.206224 -2.125,-1.5625 -0.84479,-0.3785 -1.78987,-0.5625 -2.8125,-0.5625 z m 84.125,0 c -1.0004,0 -1.93649,0.184 -2.78125,0.5625 -0.82256,0.356276 -1.52477,0.894394 -2.125,1.5625 -0.60024,0.668005 -1.08181,1.462036 -1.4375,2.375 -0.33347,0.912964 -0.5,1.908948 -0.5,3 0,1.091152 0.16653,2.127212 0.5,3.0625 0.35569,0.912964 0.83726,1.675745 1.4375,2.34375 0.62245,0.668106 1.34273,1.1839 2.1875,1.5625 0.84477,0.3786 1.78085,0.5625 2.78125,0.5625 0.8003,0 1.48448,-0.08104 2.0625,-0.28125 0.578,-0.178188 1.06858,-0.371115 1.46875,-0.59375 0.42237,-0.244958 0.75546,-0.478061 1,-0.65625 0.26676,-0.200411 0.46936,-0.3125 0.625,-0.3125 0.13337,0 0.35402,0.121115 0.6875,0.34375 l 0.3125,-0.3125 -3,-3.6875 -0.375,0.25 c 0.13338,0.334053 0.21874,0.643338 0.21875,0.84375 -1e-5,0.489917 -0.27896,0.902751 -0.8125,1.28125 -0.51132,0.356377 -1.18648,0.53125 -2.03125,0.53125 -1.28939,0 -2.28862,-0.412732 -3,-1.28125 -0.7114,-0.868417 -1.0625,-2.097403 -1.0625,-3.65625 0,-1.536422 0.3511,-2.765509 1.0625,-3.65625 0.73361,-0.912964 1.68773,-1.34375 2.84375,-1.34375 0.48907,0 0.90332,0.05376 1.28125,0.1875 0.37791,0.111419 0.69294,0.259312 0.9375,0.4375 0.26676,0.178088 0.46035,0.371115 0.59375,0.59375 0.13338,0.200412 0.21874,0.415663 0.21875,0.59375 -1e-5,0.08889 -0.0763,0.264068 -0.1875,0.53125 l 0.40625,0.15625 2.21875,-3.75 -0.34375,-0.21875 c -0.1334,0.08889 -0.22359,0.174203 -0.3125,0.21875 -0.089,0.04445 -0.20136,0.09375 -0.3125,0.09375 -0.1334,0 -0.30896,-0.0847 -0.53125,-0.21875 -0.22233,-0.133642 -0.48806,-0.312785 -0.84375,-0.46875 -0.3557,-0.178088 -0.84146,-0.30396 -1.375,-0.4375 -0.51132,-0.133642 -1.10112,-0.21875 -1.8125,-0.21875 z m 47.90625,0 c -1.02263,0 -1.96773,0.184 -2.8125,0.5625 -0.84478,0.356276 -1.5963,0.894394 -2.21875,1.5625 -0.60024,0.668005 -1.04154,1.462036 -1.375,2.375 -0.33347,0.912964 -0.5,1.908948 -0.5,3 0,1.091152 0.16653,2.127212 0.5,3.0625 0.33346,0.912964 0.77476,1.675745 1.375,2.34375 0.62245,0.668106 1.37397,1.1839 2.21875,1.5625 0.84477,0.356276 1.78987,0.531149 2.8125,0.53125 1.02262,-1.01e-4 1.93646,-0.174974 2.78125,-0.53125 0.84476,-0.3786 1.556,-0.894394 2.15625,-1.5625 0.62244,-0.668005 1.10402,-1.430786 1.4375,-2.34375 0.33344,-0.912964 0.49999,-1.949024 0.5,-3.0625 -1e-5,-1.091052 -0.16656,-2.087036 -0.5,-3 -0.33348,-0.912964 -0.81506,-1.706995 -1.4375,-2.375 -0.60025,-0.668106 -1.31149,-1.206224 -2.15625,-1.5625 -0.84479,-0.3785 -1.75863,-0.5625 -2.78125,-0.5625 z m 58.4375,0 c -1.82295,0 -3.21836,0.408178 -4.21875,1.1875 -0.97816,0.757201 -1.46875,1.802186 -1.46875,3.09375 0,0.578911 0.11242,1.045704 0.3125,1.46875 0.2223,0.423148 0.50609,0.782021 0.90625,1.09375 0.42238,0.31183 0.93101,0.630042 1.53125,0.875 0.62247,0.222736 1.36494,0.424589 2.1875,0.625 0.66692,0.178189 1.26091,0.294933 1.75,0.40625 0.5113,0.111418 0.91652,0.250385 1.25,0.40625 0.33345,0.155864 0.56313,0.339865 0.71875,0.5625 0.17785,0.222635 0.28124,0.559001 0.28125,0.9375 -10e-6,1.224794 -1.03047,1.8125 -3.03125,1.8125 -0.66693,0 -1.24771,-0.04483 -1.78125,-0.15625 -0.53354,-0.133642 -0.99708,-0.290663 -1.375,-0.46875 -0.37792,-0.178189 -0.67492,-0.361987 -0.875,-0.5625 -0.20008,-0.222634 -0.28125,-0.415562 -0.28125,-0.59375 0,-0.08889 0.0451,-0.304244 0.15625,-0.59375 l -0.40625,-0.15625 -1.9375,4.25 L 270,30.93755 c 0.26677,-0.311729 0.48743,-0.46875 0.6875,-0.46875 0.15563,0 0.36725,0.07598 0.65625,0.1875 0.28901,0.111419 0.64914,0.219135 1.09375,0.375 0.44462,0.133641 0.98449,0.263682 1.5625,0.375 0.60022,0.111418 1.24415,0.15625 2,0.15625 1.95631,0 3.45513,-0.385853 4.5,-1.1875 1.04485,-0.801646 1.59374,-1.976876 1.59375,-3.46875 -10e-6,-1.959671 -1.14771,-3.278421 -3.4375,-3.96875 -0.80032,-0.244858 -1.56084,-0.42896 -2.25,-0.5625 -0.68915,-0.155966 -1.26093,-0.272608 -1.75,-0.40625 -0.48909,-0.155864 -0.86726,-0.339764 -1.15625,-0.5625 -0.26678,-0.244959 -0.4375,-0.599076 -0.4375,-1 0,-0.467594 0.23386,-0.826569 0.65625,-1.09375 0.44461,-0.267182 1.09273,-0.406149 1.9375,-0.40625 1.08932,1.01e-4 1.931,0.192926 2.53125,0.59375 0.60022,0.400823 0.90624,0.768724 0.90625,1.125 -10e-6,0.133642 -0.0854,0.357717 -0.21875,0.625 l 0.40625,0.1875 2.4375,-3.9375 -0.34375,-0.15625 c -0.28902,0.244958 -0.54091,0.34375 -0.71875,0.34375 -0.1334,0 -0.35824,-0.04483 -0.625,-0.15625 -0.26678,-0.111318 -0.56861,-0.241359 -0.96875,-0.375 -0.37794,-0.155865 -0.84147,-0.263682 -1.375,-0.375 -0.53355,-0.111317 -1.14558,-0.1875 -1.8125,-0.1875 z m 122.21875,0 c -1.82294,0 -3.24961,0.408178 -4.25,1.1875 -0.97817,0.757201 -1.4375,1.802186 -1.4375,3.09375 0,0.578911 0.0812,1.045704 0.28125,1.46875 0.22231,0.423148 0.53735,0.782021 0.9375,1.09375 0.42239,0.31183 0.89976,0.630042 1.5,0.875 0.62245,0.222736 1.36496,0.424589 2.1875,0.625 0.66693,0.178189 1.22967,0.294933 1.71875,0.40625 0.5113,0.111418 0.94778,0.250385 1.28125,0.40625 0.33346,0.155864 0.59437,0.339865 0.75,0.5625 0.17784,0.222635 0.24999,0.559001 0.25,0.9375 -10e-6,1.224794 -0.99922,1.8125 -3,1.8125 -0.66693,0 -1.24771,-0.04483 -1.78125,-0.15625 -0.53354,-0.133642 -1.02834,-0.290663 -1.40625,-0.46875 -0.37794,-0.178189 -0.64367,-0.361987 -0.84375,-0.5625 -0.20007,-0.222634 -0.3125,-0.415562 -0.3125,-0.59375 0,-0.08889 0.0764,-0.304244 0.1875,-0.59375 L 393.75,26.5313 l -1.96875,4.25 0.375,0.15625 c 0.26677,-0.311729 0.51867,-0.46875 0.71875,-0.46875 0.15561,0 0.39849,0.07598 0.6875,0.1875 0.289,0.111419 0.64913,0.219135 1.09375,0.375 0.44461,0.133641 0.95325,0.263682 1.53125,0.375 0.60023,0.111418 1.27539,0.15625 2.03125,0.15625 1.95631,0 3.45514,-0.385853 4.5,-1.1875 1.04485,-0.801646 1.56249,-1.976876 1.5625,-3.46875 -10e-6,-1.959671 -1.14772,-3.278421 -3.4375,-3.96875 -0.80032,-0.244858 -1.56085,-0.42896 -2.25,-0.5625 -0.68916,-0.155966 -1.26092,-0.272608 -1.75,-0.40625 -0.48908,-0.155864 -0.8985,-0.339764 -1.1875,-0.5625 -0.26677,-0.244959 -0.375,-0.599076 -0.375,-1 0,-0.467594 0.20261,-0.826569 0.625,-1.09375 0.44462,-0.267182 1.09272,-0.406149 1.9375,-0.40625 1.0893,1.01e-4 1.96226,0.192926 2.5625,0.59375 0.60023,0.400823 0.87499,0.768724 0.875,1.125 -10e-6,0.133642 -0.0541,0.357717 -0.1875,0.625 l 0.375,0.1875 2.46875,-3.9375 -0.375,-0.15625 c -0.28901,0.244958 -0.54093,0.34375 -0.71875,0.34375 -0.1334,0 -0.327,-0.04483 -0.59375,-0.15625 -0.26678,-0.111318 -0.59985,-0.241359 -1,-0.375 -0.37793,-0.155865 -0.81021,-0.263682 -1.34375,-0.375 -0.53354,-0.111317 -1.14558,-0.1875 -1.8125,-0.1875 z m 61.5625,0 c -1.00041,0 -1.93649,0.184 -2.78125,0.5625 -0.82256,0.356276 -1.52476,0.894394 -2.125,1.5625 -0.60023,0.668005 -1.08181,1.462036 -1.4375,2.375 -0.33346,0.912964 -0.5,1.908948 -0.5,3 0,1.091152 0.16654,2.127212 0.5,3.0625 0.35569,0.912964 0.83727,1.675745 1.4375,2.34375 0.62246,0.668106 1.34272,1.1839 2.1875,1.5625 0.84477,0.3786 1.78085,0.5625 2.78125,0.5625 0.8003,0 1.48448,-0.08104 2.0625,-0.28125 0.57799,-0.178188 1.06858,-0.371115 1.46875,-0.59375 0.42237,-0.244958 0.75545,-0.478061 1,-0.65625 0.26676,-0.200411 0.46937,-0.3125 0.625,-0.3125 0.13337,0 0.38527,0.121115 0.71875,0.34375 l 0.28125,-0.3125 -3.03125,-3.6875 -0.34375,0.25 c 0.13338,0.334053 0.21874,0.643338 0.21875,0.84375 -10e-6,0.489917 -0.27896,0.902751 -0.8125,1.28125 -0.51132,0.356377 -1.15524,0.53125 -2,0.53125 -1.28941,0 -2.31987,-0.412732 -3.03125,-1.28125 -0.7114,-0.868417 -1.0625,-2.097403 -1.0625,-3.65625 0,-1.536422 0.3511,-2.765509 1.0625,-3.65625 0.73361,-0.912964 1.68772,-1.34375 2.84375,-1.34375 0.48907,0 0.93457,0.05376 1.3125,0.1875 0.37792,0.111419 0.66169,0.259312 0.90625,0.4375 0.26675,0.178088 0.46035,0.371115 0.59375,0.59375 0.13338,0.200412 0.21874,0.415663 0.21875,0.59375 -10e-6,0.08889 -0.0764,0.264068 -0.1875,0.53125 l 0.375,0.15625 2.25,-3.75 -0.34375,-0.21875 c -0.1334,0.08889 -0.22359,0.174203 -0.3125,0.21875 -0.089,0.04445 -0.20136,0.09375 -0.3125,0.09375 -0.1334,0 -0.30896,-0.0847 -0.53125,-0.21875 -0.22233,-0.133642 -0.51931,-0.312785 -0.875,-0.46875 -0.3557,-0.178088 -0.81021,-0.30396 -1.34375,-0.4375 -0.51132,-0.133642 -1.10112,-0.21875 -1.8125,-0.21875 z m -258.6875,0.0625 c -1.11155,0 -2.12881,0.184001 -3.0625,0.5625 -0.91148,0.3786 -1.70808,0.925745 -2.375,1.59375 -0.66694,0.668005 -1.18458,1.462036 -1.5625,2.375 -0.37793,0.890741 -0.5625,1.859746 -0.5625,2.90625 0,1.113476 0.16654,2.158462 0.5,3.09375 0.35569,0.912964 0.85531,1.675745 1.5,2.34375 0.66692,0.668005 1.43228,1.1839 2.34375,1.5625 0.9337,0.356276 2.00023,0.53125 3.15625,0.53125 1.31161,0 2.45031,-0.192927 3.40625,-0.59375 0.97814,-0.423047 1.84691,-1.087036 2.625,-2 l -0.34375,-0.40625 0,-3.28125 c -1e-5,-0.333952 0.0541,-0.562886 0.1875,-0.71875 0.13337,-0.178088 0.36303,-0.27698 0.71875,-0.34375 l 0,-0.5 -5.96875,0 c -0.33347,0 -0.56314,-0.03611 -0.71875,-0.125 -0.15562,-0.111317 -0.26805,-0.344521 -0.3125,-0.65625 l -0.40625,0 0,4 0.40625,0 c 0.0444,-0.356276 0.13883,-0.567155 0.25,-0.65625 0.13337,-0.111317 0.36305,-0.15625 0.71875,-0.15625 l 2.1875,0 0,2.125 c -0.42241,0.311729 -0.84985,0.522608 -1.25,0.65625 -0.37794,0.133641 -0.8144,0.1875 -1.28125,0.1875 -1.40056,0 -2.54827,-0.421759 -3.4375,-1.3125 -0.86701,-0.912964 -1.28125,-2.16893 -1.28125,-3.75 0,-1.536422 0.38719,-2.765509 1.1875,-3.65625 0.82254,-0.912964 1.91615,-1.34375 3.25,-1.34375 1.11154,0 1.94422,0.192926 2.5,0.59375 0.57799,0.400823 0.87499,0.817927 0.875,1.21875 -1e-5,0.111318 -0.0764,0.295318 -0.1875,0.5625 l 0.40625,0.15625 2.5,-3.59375 -0.3125,-0.21875 c -0.1334,0.08889 -0.25483,0.18323 -0.34375,0.25 -0.0889,0.04445 -0.20136,0.0625 -0.3125,0.0625 -0.1334,0 -0.327,-0.05366 -0.59375,-0.1875 -0.26679,-0.155865 -0.59985,-0.353061 -1,-0.53125 -0.40016,-0.200411 -0.89076,-0.366359 -1.46875,-0.5 -0.55578,-0.155865 -1.20388,-0.25 -1.9375,-0.25 z M 137,16.9063 l 0,0.46875 c 0.35569,0.08889 0.57635,0.178859 0.6875,0.3125 0.11115,0.133541 0.15625,0.375771 0.15625,0.6875 l 0,11.46875 c 0,0.311729 -0.0451,0.553959 -0.15625,0.6875 -0.11115,0.111418 -0.33181,0.223406 -0.6875,0.3125 l 0,0.46875 4.625,0 0,-0.46875 c -0.35571,-0.08889 -0.57635,-0.201082 -0.6875,-0.3125 -0.0889,-0.133541 -0.12501,-0.375771 -0.125,-0.6875 l 0,-5.09375 6,0 0,5.09375 c -1e-5,0.311729 -0.0451,0.553959 -0.15625,0.6875 -0.089,0.111418 -0.33182,0.223406 -0.6875,0.3125 l 0,0.46875 4.65625,0 0,-0.46875 c -0.35572,-0.08889 -0.63886,-0.201082 -0.75,-0.3125 -0.11118,-0.133541 -0.15626,-0.375771 -0.15625,-0.6875 l 0,-11.46875 c -1e-5,-0.311729 0.0451,-0.553959 0.15625,-0.6875 0.11114,-0.133641 0.39428,-0.223406 0.75,-0.3125 l 0,-0.46875 -4.65625,0 0,0.46875 c 0.35568,0.08889 0.59857,0.178859 0.6875,0.3125 0.11115,0.133541 0.15624,0.375771 0.15625,0.6875 l 0,4 -6,0 0,-4 c -1e-5,-0.311729 0.036,-0.553959 0.125,-0.6875 0.11115,-0.133641 0.33179,-0.223406 0.6875,-0.3125 l 0,-0.46875 z m 17.5,0 0,0.46875 c 0.3557,0.08889 0.56733,0.178859 0.65625,0.3125 0.11116,0.133541 0.15625,0.375771 0.15625,0.6875 l 0,11.46875 c 0,0.311729 -0.0451,0.553959 -0.15625,0.6875 -0.0889,0.111418 -0.30055,0.223406 -0.65625,0.3125 l 0,0.46875 4.625,0 0,-0.46875 c -0.3557,-0.08889 -0.60759,-0.201082 -0.71875,-0.3125 -0.11116,-0.133541 -0.15626,-0.375771 -0.15625,-0.6875 l 0,-11.46875 c -1e-5,-0.311729 0.0451,-0.553959 0.15625,-0.6875 0.11116,-0.133641 0.36305,-0.223406 0.71875,-0.3125 l 0,-0.46875 z m 27.1875,0 0,0.46875 c 0.44461,0.06667 0.65625,0.223791 0.65625,0.46875 0,0.200412 -0.0273,0.375385 -0.0937,0.53125 l -4.2188,11.46875 c -0.11116,0.244959 -0.19233,0.469035 -0.28125,0.625 -0.0667,0.155865 -0.31859,0.285906 -0.71875,0.375 l 0,0.46875 4.34375,0 0,-0.46875 c -0.53355,-0.06667 -0.78125,-0.3089 -0.78125,-0.6875 0,-0.133641 0.009,-0.245729 0.0312,-0.3125 l 0.71875,-2.03125 5.28125,0 0.6875,2.03125 c 0.0667,0.200412 0.15624,0.379656 0.15625,0.46875 -1e-5,0.155865 -0.11669,0.27698 -0.25,0.34375 -0.11115,0.06667 -0.28673,0.120629 -0.53125,0.1875 l 0,0.46875 4.59375,0 0,-0.46875 c -0.31124,-0.111418 -0.54511,-0.241459 -0.65625,-0.375 -0.11118,-0.155965 -0.19235,-0.380041 -0.28125,-0.625 L 186.375,18.37505 c -0.0444,-0.155865 -0.0717,-0.254656 -0.0937,-0.34375 -0.0222,-0.111317 -0.0625,-0.236602 -0.0625,-0.28125 -10e-6,-0.155763 0.25189,-0.263582 0.71875,-0.375 l 0,-0.46875 -5.25,0 z m 120.21875,0 0,0.46875 c 0.44462,0.06667 0.65625,0.223791 0.65625,0.46875 0,0.200412 -0.0272,0.375385 -0.0937,0.53125 l -4.1875,11.46875 c -0.11116,0.244959 -0.22357,0.469035 -0.3125,0.625 -0.0667,0.155865 -0.28734,0.285906 -0.6875,0.375 l 0,0.46875 4.34375,0 0,-0.46875 c -0.53355,-0.06667 -0.8125,-0.3089 -0.8125,-0.6875 0,-0.133641 0.009,-0.245729 0.0312,-0.3125 l 0.71875,-2.03125 5.34375,0 0.6875,2.03125 c 0.0667,0.200412 0.0937,0.379656 0.0937,0.46875 -1e-5,0.155865 -0.0541,0.27698 -0.1875,0.34375 -0.11116,0.06667 -0.28671,0.120629 -0.53125,0.1875 l 0,0.46875 4.5625,0 0,-0.46875 c -0.31125,-0.111418 -0.51386,-0.241459 -0.625,-0.375 -0.11117,-0.155965 -0.2236,-0.380041 -0.3125,-0.625 l -4,-11.46875 c -0.0444,-0.155864 -0.0716,-0.254656 -0.0937,-0.34375 -0.0222,-0.111317 -0.0312,-0.205352 -0.0312,-0.25 -10e-6,-0.155763 0.25189,-0.294832 0.71875,-0.40625 l 0,-0.46875 -5.28125,0 z m 11.96875,0 0,0.46875 c 0.35569,0.08889 0.59858,0.178859 0.6875,0.3125 0.11116,0.133541 0.15625,0.375771 0.15625,0.6875 l 0,8.34375 c 0,3.251134 2.01647,4.874899 6.0625,4.875 3.91264,-1.01e-4 5.87499,-1.623866 5.875,-4.875 l 0,-8.34375 c -10e-6,-0.311729 0.0451,-0.553959 0.15625,-0.6875 0.11115,-0.133641 0.33179,-0.223406 0.6875,-0.3125 l 0,-0.46875 -4.4375,0 0,0.46875 c 0.35568,0.08889 0.57634,0.178859 0.6875,0.3125 0.11114,0.133541 0.15624,0.375771 0.15625,0.6875 l 0,8.21875 c -10e-6,1.714712 -1.0353,2.5625 -3.125,2.5625 -2.0897,0 -3.15625,-0.847788 -3.15625,-2.5625 l 0,-8.21875 c 0,-0.311729 0.10767,-0.553959 0.21875,-0.6875 0.11115,-0.133641 0.3318,-0.223406 0.6875,-0.3125 l 0,-0.46875 z m 17.3125,0 0,0.46875 c 0.35569,0.08889 0.57635,0.178859 0.6875,0.3125 0.11115,0.133541 0.15625,0.375771 0.15625,0.6875 l 0,11.46875 c 0,0.311729 -0.0451,0.553959 -0.15625,0.6875 -0.11115,0.111418 -0.33181,0.223406 -0.6875,0.3125 l 0,0.46875 4.625,0 0,-0.46875 c -0.3557,-0.08889 -0.57634,-0.201082 -0.6875,-0.3125 -0.0889,-0.133541 -0.12501,-0.375771 -0.125,-0.6875 l 0,-4.625 2.4375,0 2.375,4.625 c 0.13338,0.267182 0.18749,0.482432 0.1875,0.59375 -10e-6,0.178188 -0.22968,0.317156 -0.71875,0.40625 l 0,0.46875 4.96875,0 0,-0.46875 c -0.51132,-0.178188 -0.92074,-0.541433 -1.1875,-1.03125 l -2.625,-4.90625 c 1.02261,-0.267283 1.77895,-0.778421 2.3125,-1.46875 0.55577,-0.712553 0.84374,-1.529192 0.84375,-2.53125 -10e-6,-1.180146 -0.44551,-2.140124 -1.3125,-2.875 -0.86702,-0.734775 -2.13197,-1.125 -3.84375,-1.125 z m 19.0625,0 0,0.46875 c 0.4446,0.06667 0.65625,0.223791 0.65625,0.46875 0,0.200412 -0.0272,0.375385 -0.0937,0.53125 l -4.1875,11.46875 c -0.11115,0.244959 -0.22357,0.469035 -0.3125,0.625 -0.0667,0.155865 -0.28735,0.285906 -0.6875,0.375 l 0,0.46875 4.34375,0 0,-0.46875 c -0.53354,-0.06667 -0.8125,-0.3089 -0.8125,-0.6875 0,-0.133641 0.009,-0.245729 0.0312,-0.3125 l 0.75,-2.03125 5.3125,0 0.6875,2.03125 c 0.0667,0.200412 0.0937,0.379656 0.0937,0.46875 -1e-5,0.155865 -0.0541,0.27698 -0.1875,0.34375 -0.11117,0.06667 -0.28672,0.120629 -0.53125,0.1875 l 0,0.46875 4.5625,0 0,-0.46875 c -0.31125,-0.111418 -0.51385,-0.241459 -0.625,-0.375 -0.11117,-0.155965 -0.22359,-0.380041 -0.3125,-0.625 l -4,-11.46875 c -0.0444,-0.155865 -0.0716,-0.254656 -0.0937,-0.34375 -0.0222,-0.111317 -0.0312,-0.236602 -0.0312,-0.28125 -10e-6,-0.155763 0.2519,-0.263582 0.71875,-0.375 l 0,-0.46875 -5.28125,0 z m 12.03125,0 0,0.46875 c 0.3557,0.08889 0.6076,0.178859 0.71875,0.3125 0.11116,0.133541 0.15625,0.375771 0.15625,0.6875 l 0,11.46875 c 0,0.311729 -0.0451,0.553959 -0.15625,0.6875 -0.11115,0.111418 -0.36305,0.223406 -0.71875,0.3125 l 0,0.46875 4.53125,0 0,-0.46875 c -0.3557,-0.08889 -0.6076,-0.201082 -0.71875,-0.3125 -0.11116,-0.133541 -0.1875,-0.375771 -0.1875,-0.6875 l 0,-8.5625 5.53125,8.78125 c 0.0222,0.06667 0.0312,0.169831 0.0312,0.28125 -1e-5,0.267182 -0.18458,0.442155 -0.5625,0.53125 l 0,0.4375 4.75,0 0,-0.46875 c -0.35572,-0.08889 -0.57636,-0.201082 -0.6875,-0.3125 -0.11118,-0.133541 -0.15626,-0.375771 -0.15625,-0.6875 l 0,-11.46875 c -1e-5,-0.311729 0.0451,-0.544933 0.15625,-0.65625 0.11114,-0.133642 0.33178,-0.223405 0.6875,-0.3125 l 0,-0.5 -4.46875,0 0,0.5 c 0.35568,0.08889 0.59856,0.178858 0.6875,0.3125 0.11114,0.111317 0.15624,0.344521 0.15625,0.65625 l 0,7.59375 -4.84375,-7.75 c -0.11116,-0.222736 -0.15626,-0.361703 -0.15625,-0.40625 -1e-5,-0.289506 0.19359,-0.437399 0.59375,-0.4375 l 0.0937,0 0,-0.46875 -5.4375,0 z m 73.78125,0 0,0.46875 c 0.35569,0.08889 0.57636,0.178859 0.6875,0.3125 0.11116,0.133541 0.15625,0.375771 0.15625,0.6875 l 0,11.46875 c 0,0.311729 -0.0451,0.553959 -0.15625,0.6875 -0.11114,0.111418 -0.33181,0.223406 -0.6875,0.3125 l 0,0.46875 4.5,0 0,-0.46875 c -0.35571,-0.08889 -0.60759,-0.201082 -0.71875,-0.3125 -0.11116,-0.133541 -0.15625,-0.375771 -0.15625,-0.6875 l 0,-8.5625 5.53125,8.78125 c 0.0222,0.06667 0.0312,0.169831 0.0312,0.28125 -1e-5,0.267182 -0.18458,0.442155 -0.5625,0.53125 l 0,0.4375 4.75,0 0,-0.46875 c -0.35571,-0.08889 -0.57636,-0.201082 -0.6875,-0.3125 -0.11117,-0.133541 -0.15626,-0.375771 -0.15625,-0.6875 l 0,-11.46875 c -1e-5,-0.311729 0.0451,-0.544933 0.15625,-0.65625 0.11114,-0.133642 0.33179,-0.223405 0.6875,-0.3125 l 0,-0.5 -4.46875,0 0,0.5 c 0.35568,0.08889 0.56732,0.178858 0.65625,0.3125 0.11114,0.111317 0.18749,0.344521 0.1875,0.65625 l 0,7.59375 -4.84375,-7.75 c -0.11116,-0.222736 -0.15626,-0.361703 -0.15625,-0.40625 -1e-5,-0.289506 0.19358,-0.437399 0.59375,-0.4375 l 0.0937,0 0,-0.46875 -5.4375,0 z m -350.65625,2.25 c 1.15601,1.01e-4 2.10109,0.430786 2.8125,1.34375 0.73361,0.890741 1.06249,2.101875 1.0625,3.59375 -1e-5,1.469752 -0.31988,2.649536 -1.03125,3.5625 -0.7114,0.890741 -1.66551,1.343851 -2.84375,1.34375 -1.20048,1.01e-4 -2.16361,-0.412833 -2.875,-1.28125 C 81.84209,26.850384 81.5,25.630323 81.5,24.0938 c 0,-1.536422 0.35111,-2.756584 1.0625,-3.625 0.71139,-0.890741 1.66552,-1.312399 2.84375,-1.3125 z m 132.03125,0 c 1.156,1.01e-4 2.06984,0.430786 2.78125,1.34375 0.73361,0.890741 1.12499,2.101875 1.125,3.59375 -1e-5,1.469752 -0.38237,2.649536 -1.09375,3.5625 -0.7114,0.890741 -1.63427,1.343851 -2.8125,1.34375 -1.20048,1.01e-4 -2.16362,-0.412833 -2.875,-1.28125 -0.68917,-0.868416 -1.03125,-2.088477 -1.03125,-3.625 0,-1.536422 0.35111,-2.756584 1.0625,-3.625 0.71139,-0.890741 1.66551,-1.312399 2.84375,-1.3125 z M 335,19.2813 l 2.84375,0 c 0.9337,1.01e-4 1.58662,0.139068 2.03125,0.40625 0.44461,0.244959 0.68749,0.697968 0.6875,1.34375 -10e-6,0.690329 -0.24289,1.147994 -0.6875,1.4375 -0.42239,0.289506 -1.04827,0.4375 -1.9375,0.4375 l -2.9375,0 z m -150.90625,0.9375 1.8125,5.34375 -3.75,0 z m 120.21875,0 1.8125,5.34375 -3.71875,0 z m 48.34375,0 1.84375,5.34375 -3.75,0 z m 57.78125,7.03125 c -0.57801,1.01e-4 -1.06859,0.192927 -1.46875,0.59375 -0.37792,0.400823 -0.5625,0.858488 -0.5625,1.4375 0,1.157923 0.59882,1.835109 1.84375,1.96875 0.31124,0.04445 0.57633,0.08055 0.6875,0.125 0.13337,0.06667 0.1875,0.196811 0.1875,0.375 0,0.489917 -0.26995,0.965535 -0.78125,1.5 -0.51132,0.534464 -1.25864,1.05463 -2.28125,1.5 l 0,1 c 1.60063,-0.556788 2.80245,-1.292489 3.625,-2.25 0.84477,-0.957612 1.24999,-2.105659 1.25,-3.375 -10e-6,-0.89064 -0.21165,-1.581609 -0.65625,-2.09375 -0.44463,-0.534465 -1.06567,-0.781149 -1.84375,-0.78125 z m 61.25,0.09375 c -0.57801,0 -1.07761,0.192927 -1.5,0.59375 -0.40015,0.400823 -0.59375,0.889738 -0.59375,1.46875 0,0.601234 0.1936,1.099278 0.59375,1.5 0.40016,0.400823 0.89977,0.59375 1.5,0.59375 0.578,0 1.06858,-0.192927 1.46875,-0.59375 0.42238,-0.423046 0.62499,-0.920989 0.625,-1.5 -10e-6,-0.579012 -0.20262,-1.067927 -0.625,-1.46875 -0.40017,-0.400823 -0.89075,-0.59375 -1.46875,-0.59375 z"
     style="font-style:normal;font-weight:normal;font-size:85.65730286px;line-height:125%;font-family:Sans;letter-spacing:0px;word-spacing:0px;fill:#666666;fill-opacity:1;stroke:none" />
  <path
     d="m 5.91431,41.788484 461.97063,0"
     id="path3012"
     style="fill:#666666;stroke:#666666;stroke-width:0.99999988px;stroke-linecap:round;stroke-linejoin:miter;stroke-opacity:1;fill-opacity:1" />
  <path
     d="m 16.18033,45.499837 441.4386,0"
     id="path3012-2"
     style="fill:#666666;stroke:#666666;stroke-width:0.99999988px;stroke-linecap:round;stroke-linejoin:miter;stroke-opacity:1;fill-opacity:1" />
  <path
     d="m 5.91431,4.2113009 461.97063,0"
     id="path3012-1"
     style="fill:#666666;stroke:#666666;stroke-width:0.99999988px;stroke-linecap:round;stroke-linejoin:miter;stroke-opacity:1;fill-opacity:1" />
  <path
     d="m 16.18033,0.50004994 441.4386,0"
     id="path3012-2-2"
     style="fill:#666666;stroke:#666666;stroke-width:0.99999988px;stroke-linecap:round;stroke-linejoin:miter;stroke-opacity:1;fill-opacity:1" />
</svg>
